<svg width="1045" height="326" viewBox="0 0 1045 326" fill="none" xmlns="http://www.w3.org/2000/svg">
<rect x="124" y="102" width="201" height="126" fill="#E0E0E0"/>
<path d="M159.637 161.937H159.725L162.651 172H164.146L167.6 159.317H165.947L163.407 169.671H163.337L160.48 159.317H158.881L156.024 169.671H155.954L153.414 159.317H151.762L155.216 172H156.71L159.637 161.937ZM169.067 172H170.597V162.859H169.067V172ZM169.832 161.233C170.368 161.233 170.79 160.803 170.79 160.275C170.79 159.739 170.368 159.317 169.832 159.317C169.305 159.317 168.874 159.739 168.874 160.275C168.874 160.803 169.305 161.233 169.832 161.233ZM172.504 165.382C172.504 166.7 173.339 167.5 175.062 167.913L176.512 168.265C177.558 168.52 177.918 168.897 177.918 169.557C177.918 170.383 177.153 170.91 175.914 170.91C174.675 170.91 173.972 170.409 173.787 169.363H172.258C172.434 171.077 173.77 172.158 175.914 172.158C177.953 172.158 179.456 171.033 179.456 169.442C179.456 168.133 178.788 167.412 176.942 166.964L175.492 166.612C174.473 166.366 174.007 165.936 174.007 165.303C174.007 164.503 174.745 163.949 175.861 163.949C176.986 163.949 177.689 164.538 177.804 165.496H179.263C179.201 163.879 177.865 162.701 175.861 162.701C173.884 162.701 172.504 163.817 172.504 165.382ZM181.126 172H182.655V166.674C182.655 165.092 183.596 164.055 185.116 164.055C186.549 164.055 187.278 164.925 187.278 166.375V172H188.808V166.094C188.808 164.055 187.595 162.701 185.591 162.701C184.202 162.701 183.2 163.299 182.69 164.318H182.655V159.317H181.126V172ZM196.261 159.317H194.679V167.553C194.679 170.26 196.568 172.211 199.715 172.211C202.861 172.211 204.751 170.26 204.751 167.553V159.317H203.169V167.447C203.169 169.363 201.912 170.752 199.715 170.752C197.518 170.752 196.261 169.363 196.261 167.447V159.317ZM206.816 165.382C206.816 166.7 207.651 167.5 209.374 167.913L210.824 168.265C211.87 168.52 212.23 168.897 212.23 169.557C212.23 170.383 211.466 170.91 210.227 170.91C208.987 170.91 208.284 170.409 208.1 169.363H206.57C206.746 171.077 208.082 172.158 210.227 172.158C212.266 172.158 213.769 171.033 213.769 169.442C213.769 168.133 213.101 167.412 211.255 166.964L209.805 166.612C208.785 166.366 208.319 165.936 208.319 165.303C208.319 164.503 209.058 163.949 210.174 163.949C211.299 163.949 212.002 164.538 212.116 165.496H213.575C213.514 163.879 212.178 162.701 210.174 162.701C208.196 162.701 206.816 163.817 206.816 165.382ZM219.024 164.028C220.466 164.028 221.424 165.118 221.459 166.647H216.493C216.59 165.127 217.592 164.028 219.024 164.028ZM221.424 169.381C221.169 170.242 220.316 170.831 219.156 170.831C217.513 170.831 216.484 169.68 216.484 167.931V167.843H223.041V167.263C223.041 164.494 221.521 162.701 219.051 162.701C216.528 162.701 214.911 164.626 214.911 167.465C214.911 170.339 216.502 172.158 219.121 172.158C221.116 172.158 222.663 170.98 222.927 169.381H221.424ZM224.588 172H226.117V166.305C226.117 165.013 226.891 164.16 228.077 164.16C228.446 164.16 228.771 164.204 228.895 164.248V162.763C228.771 162.745 228.543 162.701 228.279 162.701C227.207 162.701 226.363 163.343 226.064 164.354H226.029V162.859H224.588V172ZM233.456 168.599C233.605 170.787 235.451 172.211 238.22 172.211C241.059 172.211 242.904 170.743 242.904 168.396C242.904 166.604 241.858 165.549 239.213 164.969L237.807 164.661C236.075 164.283 235.398 163.598 235.398 162.596C235.398 161.304 236.62 160.53 238.202 160.53C239.854 160.53 240.953 161.383 241.094 162.771H242.676C242.605 160.618 240.777 159.106 238.246 159.106C235.618 159.106 233.772 160.574 233.772 162.666C233.772 164.468 234.871 165.619 237.411 166.173L238.817 166.48C240.575 166.867 241.278 167.57 241.278 168.634C241.278 169.882 240.03 170.787 238.308 170.787C236.488 170.787 235.223 169.961 235.038 168.599H233.456ZM252.115 165.856C251.922 164.213 250.56 162.701 248.274 162.701C245.752 162.701 244.073 164.547 244.073 167.43C244.073 170.374 245.761 172.158 248.292 172.158C250.366 172.158 251.896 170.875 252.133 169.056H250.63C250.366 170.154 249.549 170.813 248.301 170.813C246.719 170.813 245.629 169.557 245.629 167.43C245.629 165.355 246.701 164.046 248.283 164.046C249.628 164.046 250.401 164.863 250.621 165.856H252.115ZM253.539 172H255.068V166.305C255.068 165.013 255.842 164.16 257.028 164.16C257.397 164.16 257.723 164.204 257.846 164.248V162.763C257.723 162.745 257.494 162.701 257.23 162.701C256.158 162.701 255.314 163.343 255.016 164.354H254.98V162.859H253.539V172ZM262.442 172.158C264.965 172.158 266.67 170.339 266.67 167.43C266.67 164.512 264.965 162.701 262.442 162.701C259.911 162.701 258.206 164.512 258.206 167.43C258.206 170.339 259.911 172.158 262.442 172.158ZM262.442 170.813C260.825 170.813 259.762 169.583 259.762 167.43C259.762 165.276 260.825 164.046 262.442 164.046C264.06 164.046 265.114 165.276 265.114 167.43C265.114 169.583 264.06 170.813 262.442 170.813ZM268.296 172H269.825V159.317H268.296V172ZM271.97 172H273.499V159.317H271.97V172ZM275.644 172H277.173V162.859H275.644V172ZM276.408 161.233C276.944 161.233 277.366 160.803 277.366 160.275C277.366 159.739 276.944 159.317 276.408 159.317C275.881 159.317 275.45 159.739 275.45 160.275C275.45 160.803 275.881 161.233 276.408 161.233ZM279.238 172H280.768V166.621C280.768 165.074 281.708 164.055 283.149 164.055C284.556 164.055 285.25 164.863 285.25 166.34V172H286.779V166.067C286.779 163.993 285.619 162.701 283.615 162.701C282.2 162.701 281.225 163.334 280.715 164.318H280.68V162.859H279.238V172ZM292.448 170.726C290.875 170.726 289.847 169.442 289.847 167.395C289.847 165.347 290.875 164.046 292.448 164.046C294.039 164.046 295.103 165.382 295.103 167.395C295.103 169.407 294.039 170.726 292.448 170.726ZM292.501 175.445C295.023 175.445 296.632 173.995 296.632 171.815V162.859H295.173V164.397H295.146C294.54 163.334 293.468 162.701 292.176 162.701C289.812 162.701 288.282 164.529 288.282 167.395C288.282 170.233 289.812 172.07 292.141 172.07C293.424 172.07 294.505 171.42 295.067 170.427H295.103V171.868C295.103 173.23 294.145 174.145 292.562 174.145C291.42 174.145 290.515 173.591 290.216 172.756H288.643C288.897 174.312 290.488 175.445 292.501 175.445Z" fill="black"/>
<rect x="844" y="200" width="201" height="126" fill="#E0E0E0"/>
<path d="M866.611 257.317V270H870.874C874.645 270 876.859 267.653 876.859 263.654C876.859 259.664 874.636 257.317 870.874 257.317H866.611ZM868.193 258.741H870.769C873.651 258.741 875.242 260.499 875.242 263.672C875.242 266.818 873.643 268.576 870.769 268.576H868.193V258.741ZM882.379 270.158C884.901 270.158 886.606 268.339 886.606 265.43C886.606 262.512 884.901 260.701 882.379 260.701C879.848 260.701 878.143 262.512 878.143 265.43C878.143 268.339 879.848 270.158 882.379 270.158ZM882.379 268.813C880.762 268.813 879.698 267.583 879.698 265.43C879.698 263.276 880.762 262.046 882.379 262.046C883.996 262.046 885.051 263.276 885.051 265.43C885.051 267.583 883.996 268.813 882.379 268.813ZM891.818 262.028C893.26 262.028 894.218 263.118 894.253 264.647H889.287C889.384 263.127 890.386 262.028 891.818 262.028ZM894.218 267.381C893.963 268.242 893.11 268.831 891.95 268.831C890.307 268.831 889.278 267.68 889.278 265.931V265.843H895.835V265.263C895.835 262.494 894.314 260.701 891.845 260.701C889.322 260.701 887.705 262.626 887.705 265.465C887.705 268.339 889.296 270.158 891.915 270.158C893.91 270.158 895.457 268.98 895.721 267.381H894.218ZM897.224 263.382C897.224 264.7 898.059 265.5 899.781 265.913L901.231 266.265C902.277 266.52 902.638 266.897 902.638 267.557C902.638 268.383 901.873 268.91 900.634 268.91C899.395 268.91 898.691 268.409 898.507 267.363H896.978C897.153 269.077 898.489 270.158 900.634 270.158C902.673 270.158 904.176 269.033 904.176 267.442C904.176 266.133 903.508 265.412 901.662 264.964L900.212 264.612C899.192 264.366 898.727 263.936 898.727 263.303C898.727 262.503 899.465 261.949 900.581 261.949C901.706 261.949 902.409 262.538 902.523 263.496H903.982C903.921 261.879 902.585 260.701 900.581 260.701C898.604 260.701 897.224 261.817 897.224 263.382ZM905.767 270H907.296V264.621C907.296 263.074 908.236 262.055 909.678 262.055C911.084 262.055 911.778 262.863 911.778 264.34V270H913.308V264.067C913.308 261.993 912.147 260.701 910.144 260.701C908.729 260.701 907.753 261.334 907.243 262.318H907.208V260.859H905.767V270ZM915.874 261.791L917.078 257.317H915.452L914.6 261.791H915.874ZM919.688 258.653V260.859H918.326V262.116H919.688V267.627C919.688 269.385 920.339 270.07 922.018 270.07C922.378 270.07 922.8 270.044 922.984 270V268.717C922.879 268.734 922.527 268.761 922.352 268.761C921.569 268.761 921.218 268.383 921.218 267.548V262.116H922.993V260.859H921.218V258.653H919.688ZM935.913 263.856C935.72 262.213 934.357 260.701 932.072 260.701C929.55 260.701 927.871 262.547 927.871 265.43C927.871 268.374 929.559 270.158 932.09 270.158C934.164 270.158 935.693 268.875 935.931 267.056H934.428C934.164 268.154 933.347 268.813 932.099 268.813C930.517 268.813 929.427 267.557 929.427 265.43C929.427 263.355 930.499 262.046 932.081 262.046C933.426 262.046 934.199 262.863 934.419 263.856H935.913ZM937.416 270H938.945V257.317H937.416V270ZM941.09 270H942.619V260.859H941.09V270ZM941.854 259.233C942.391 259.233 942.812 258.803 942.812 258.275C942.812 257.739 942.391 257.317 941.854 257.317C941.327 257.317 940.896 257.739 940.896 258.275C940.896 258.803 941.327 259.233 941.854 259.233ZM952.278 263.856C952.085 262.213 950.723 260.701 948.438 260.701C945.915 260.701 944.236 262.547 944.236 265.43C944.236 268.374 945.924 270.158 948.455 270.158C950.529 270.158 952.059 268.875 952.296 267.056H950.793C950.529 268.154 949.712 268.813 948.464 268.813C946.882 268.813 945.792 267.557 945.792 265.43C945.792 263.355 946.864 262.046 948.446 262.046C949.791 262.046 950.564 262.863 950.784 263.856H952.278ZM955.311 264.92V257.317H953.781V270H955.311V266.555L956.163 265.746L959.556 270H961.331L957.244 264.806L961.208 260.859H959.354L955.311 264.92ZM970.568 260.701C969.241 260.701 968.178 261.378 967.615 262.406H967.58V260.859H966.13V273.05H967.659V268.515H967.694C968.239 269.517 969.294 270.158 970.604 270.158C972.906 270.158 974.479 268.295 974.479 265.43C974.479 262.564 972.897 260.701 970.568 260.701ZM970.27 268.813C968.705 268.813 967.65 267.469 967.65 265.43C967.65 263.399 968.705 262.046 970.27 262.046C971.896 262.046 972.915 263.364 972.915 265.43C972.915 267.504 971.896 268.813 970.27 268.813ZM976.026 270H977.556V264.305C977.556 263.013 978.329 262.16 979.516 262.16C979.885 262.16 980.21 262.204 980.333 262.248V260.763C980.21 260.745 979.981 260.701 979.718 260.701C978.646 260.701 977.802 261.343 977.503 262.354H977.468V260.859H976.026V270ZM984.93 270.158C987.452 270.158 989.157 268.339 989.157 265.43C989.157 262.512 987.452 260.701 984.93 260.701C982.398 260.701 980.693 262.512 980.693 265.43C980.693 268.339 982.398 270.158 984.93 270.158ZM984.93 268.813C983.312 268.813 982.249 267.583 982.249 265.43C982.249 263.276 983.312 262.046 984.93 262.046C986.547 262.046 987.602 263.276 987.602 265.43C987.602 267.583 986.547 268.813 984.93 268.813ZM994.167 270.158C995.485 270.158 996.531 269.508 997.12 268.453H997.146V270H998.605V257.317H997.076V262.345H997.041C996.496 261.343 995.441 260.701 994.132 260.701C991.829 260.701 990.256 262.564 990.256 265.43C990.256 268.295 991.838 270.158 994.167 270.158ZM994.457 262.046C996.03 262.046 997.085 263.391 997.085 265.43C997.085 267.478 996.03 268.813 994.457 268.813C992.84 268.813 991.82 267.504 991.82 265.43C991.82 263.364 992.84 262.046 994.457 262.046ZM1008.18 260.859H1006.65V266.229C1006.65 267.785 1005.75 268.805 1004.27 268.805C1002.85 268.805 1002.16 268.005 1002.16 266.52V260.859H1000.63V266.792C1000.63 268.866 1001.8 270.158 1003.79 270.158C1005.2 270.158 1006.15 269.569 1006.69 268.515H1006.73V270H1008.18V260.859ZM1017.76 263.856C1017.56 262.213 1016.2 260.701 1013.92 260.701C1011.39 260.701 1009.71 262.547 1009.71 265.43C1009.71 268.374 1011.4 270.158 1013.93 270.158C1016.01 270.158 1017.54 268.875 1017.77 267.056H1016.27C1016.01 268.154 1015.19 268.813 1013.94 268.813C1012.36 268.813 1011.27 267.557 1011.27 265.43C1011.27 263.355 1012.34 262.046 1013.92 262.046C1015.27 262.046 1016.04 262.863 1016.26 263.856H1017.76ZM1019.67 258.653V260.859H1018.31V262.116H1019.67V267.627C1019.67 269.385 1020.32 270.07 1022 270.07C1022.36 270.07 1022.78 270.044 1022.97 270V268.717C1022.86 268.734 1022.51 268.761 1022.34 268.761C1021.55 268.761 1021.2 268.383 1021.2 267.548V262.116H1022.98V260.859H1021.2V258.653H1019.67Z" fill="black"/>
<rect x="844" width="201" height="126" fill="#E0E0E0"/>
<path d="M897.118 70.2109C899.922 70.2109 901.803 68.8135 902.383 66.3086H900.783C900.326 67.8555 898.99 68.752 897.127 68.752C894.622 68.752 893.031 66.7656 893.031 63.6543C893.031 60.5693 894.64 58.5654 897.118 58.5654C898.929 58.5654 900.379 59.6553 900.783 61.3164H902.383C901.979 58.7852 899.878 57.1064 897.118 57.1064C893.646 57.1064 891.405 59.6729 891.405 63.6543C891.405 67.6709 893.62 70.2109 897.118 70.2109ZM904.097 70H905.626V57.3174H904.097V70ZM907.771 70H909.3V60.8594H907.771V70ZM908.535 59.2334C909.071 59.2334 909.493 58.8027 909.493 58.2754C909.493 57.7393 909.071 57.3174 908.535 57.3174C908.008 57.3174 907.577 57.7393 907.577 58.2754C907.577 58.8027 908.008 59.2334 908.535 59.2334ZM918.959 63.8564C918.766 62.2129 917.403 60.7012 915.118 60.7012C912.596 60.7012 910.917 62.5469 910.917 65.4297C910.917 68.374 912.604 70.1582 915.136 70.1582C917.21 70.1582 918.739 68.875 918.977 67.0557H917.474C917.21 68.1543 916.393 68.8135 915.145 68.8135C913.562 68.8135 912.473 67.5566 912.473 65.4297C912.473 63.3555 913.545 62.0459 915.127 62.0459C916.472 62.0459 917.245 62.8633 917.465 63.8564H918.959ZM921.991 64.9199V57.3174H920.462V70H921.991V66.5547L922.844 65.7461L926.236 70H928.012L923.925 64.8057L927.889 60.8594H926.034L921.991 64.9199ZM928.609 63.3818C928.609 64.7002 929.444 65.5 931.167 65.9131L932.617 66.2646C933.663 66.5195 934.023 66.8975 934.023 67.5566C934.023 68.3828 933.259 68.9102 932.02 68.9102C930.78 68.9102 930.077 68.4092 929.893 67.3633H928.363C928.539 69.0771 929.875 70.1582 932.02 70.1582C934.059 70.1582 935.562 69.0332 935.562 67.4424C935.562 66.1328 934.894 65.4121 933.048 64.9639L931.598 64.6123C930.578 64.3662 930.112 63.9355 930.112 63.3027C930.112 62.5029 930.851 61.9492 931.967 61.9492C933.092 61.9492 933.795 62.5381 933.909 63.4961H935.368C935.307 61.8789 933.971 60.7012 931.967 60.7012C929.989 60.7012 928.609 61.8174 928.609 63.3818ZM945.282 60.7012C943.955 60.7012 942.892 61.3779 942.329 62.4062H942.294V60.8594H940.844V73.0498H942.373V68.5146H942.408C942.953 69.5166 944.008 70.1582 945.317 70.1582C947.62 70.1582 949.193 68.2949 949.193 65.4297C949.193 62.5645 947.611 60.7012 945.282 60.7012ZM944.983 68.8135C943.419 68.8135 942.364 67.4688 942.364 65.4297C942.364 63.3994 943.419 62.0459 944.983 62.0459C946.609 62.0459 947.629 63.3643 947.629 65.4297C947.629 67.5039 946.609 68.8135 944.983 68.8135ZM950.74 70H952.27V64.3047C952.27 63.0127 953.043 62.1602 954.229 62.1602C954.599 62.1602 954.924 62.2041 955.047 62.248V60.7627C954.924 60.7451 954.695 60.7012 954.432 60.7012C953.359 60.7012 952.516 61.3428 952.217 62.3535H952.182V60.8594H950.74V70ZM959.644 70.1582C962.166 70.1582 963.871 68.3389 963.871 65.4297C963.871 62.5117 962.166 60.7012 959.644 60.7012C957.112 60.7012 955.407 62.5117 955.407 65.4297C955.407 68.3389 957.112 70.1582 959.644 70.1582ZM959.644 68.8135C958.026 68.8135 956.963 67.583 956.963 65.4297C956.963 63.2764 958.026 62.0459 959.644 62.0459C961.261 62.0459 962.315 63.2764 962.315 65.4297C962.315 67.583 961.261 68.8135 959.644 68.8135ZM968.881 70.1582C970.199 70.1582 971.245 69.5078 971.834 68.4531H971.86V70H973.319V57.3174H971.79V62.3447H971.755C971.21 61.3428 970.155 60.7012 968.846 60.7012C966.543 60.7012 964.97 62.5645 964.97 65.4297C964.97 68.2949 966.552 70.1582 968.881 70.1582ZM969.171 62.0459C970.744 62.0459 971.799 63.3906 971.799 65.4297C971.799 67.4775 970.744 68.8135 969.171 68.8135C967.554 68.8135 966.534 67.5039 966.534 65.4297C966.534 63.3643 967.554 62.0459 969.171 62.0459ZM982.891 60.8594H981.361V66.2295C981.361 67.7852 980.465 68.8047 978.979 68.8047C977.564 68.8047 976.87 68.0049 976.87 66.5195V60.8594H975.341V66.792C975.341 68.8662 976.51 70.1582 978.505 70.1582C979.911 70.1582 980.86 69.5693 981.405 68.5146H981.44V70H982.891V60.8594ZM992.471 63.8564C992.277 62.2129 990.915 60.7012 988.63 60.7012C986.107 60.7012 984.429 62.5469 984.429 65.4297C984.429 68.374 986.116 70.1582 988.647 70.1582C990.722 70.1582 992.251 68.875 992.488 67.0557H990.985C990.722 68.1543 989.904 68.8135 988.656 68.8135C987.074 68.8135 985.984 67.5566 985.984 65.4297C985.984 63.3555 987.057 62.0459 988.639 62.0459C989.983 62.0459 990.757 62.8633 990.977 63.8564H992.471ZM994.387 58.6533V60.8594H993.024V62.1162H994.387V67.627C994.387 69.3848 995.037 70.0703 996.716 70.0703C997.076 70.0703 997.498 70.0439 997.683 70V68.7168C997.577 68.7344 997.226 68.7607 997.05 68.7607C996.268 68.7607 995.916 68.3828 995.916 67.5479V62.1162H997.691V60.8594H995.916V58.6533H994.387Z" fill="black"/>
<rect x="484" y="200" width="201" height="126" fill="#E0E0E0"/>
<path d="M511.234 257.317V270H515.497C519.268 270 521.482 267.653 521.482 263.654C521.482 259.664 519.259 257.317 515.497 257.317H511.234ZM512.816 258.741H515.392C518.274 258.741 519.865 260.499 519.865 263.672C519.865 266.818 518.266 268.576 515.392 268.576H512.816V258.741ZM527.002 270.158C529.524 270.158 531.229 268.339 531.229 265.43C531.229 262.512 529.524 260.701 527.002 260.701C524.471 260.701 522.766 262.512 522.766 265.43C522.766 268.339 524.471 270.158 527.002 270.158ZM527.002 268.813C525.385 268.813 524.321 267.583 524.321 265.43C524.321 263.276 525.385 262.046 527.002 262.046C528.619 262.046 529.674 263.276 529.674 265.43C529.674 267.583 528.619 268.813 527.002 268.813ZM536.441 262.028C537.883 262.028 538.841 263.118 538.876 264.647H533.91C534.007 263.127 535.009 262.028 536.441 262.028ZM538.841 267.381C538.586 268.242 537.733 268.831 536.573 268.831C534.93 268.831 533.901 267.68 533.901 265.931V265.843H540.458V265.263C540.458 262.494 538.938 260.701 536.468 260.701C533.945 260.701 532.328 262.626 532.328 265.465C532.328 268.339 533.919 270.158 536.538 270.158C538.533 270.158 540.08 268.98 540.344 267.381H538.841ZM541.847 263.382C541.847 264.7 542.682 265.5 544.404 265.913L545.854 266.265C546.9 266.52 547.261 266.897 547.261 267.557C547.261 268.383 546.496 268.91 545.257 268.91C544.018 268.91 543.314 268.409 543.13 267.363H541.601C541.776 269.077 543.112 270.158 545.257 270.158C547.296 270.158 548.799 269.033 548.799 267.442C548.799 266.133 548.131 265.412 546.285 264.964L544.835 264.612C543.815 264.366 543.35 263.936 543.35 263.303C543.35 262.503 544.088 261.949 545.204 261.949C546.329 261.949 547.032 262.538 547.146 263.496H548.605C548.544 261.879 547.208 260.701 545.204 260.701C543.227 260.701 541.847 261.817 541.847 263.382ZM550.39 270H551.919V264.621C551.919 263.074 552.859 262.055 554.301 262.055C555.707 262.055 556.401 262.863 556.401 264.34V270H557.931V264.067C557.931 261.993 556.771 260.701 554.767 260.701C553.352 260.701 552.376 261.334 551.866 262.318H551.831V260.859H550.39V270ZM560.497 261.791L561.701 257.317H560.075L559.223 261.791H560.497ZM564.312 258.653V260.859H562.949V262.116H564.312V267.627C564.312 269.385 564.962 270.07 566.641 270.07C567.001 270.07 567.423 270.044 567.607 270V268.717C567.502 268.734 567.15 268.761 566.975 268.761C566.192 268.761 565.841 268.383 565.841 267.548V262.116H567.616V260.859H565.841V258.653H564.312ZM573.021 270H574.551V257.317H573.021V270ZM576.695 270H578.225V260.859H576.695V270ZM577.46 259.233C577.996 259.233 578.418 258.803 578.418 258.275C578.418 257.739 577.996 257.317 577.46 257.317C576.933 257.317 576.502 257.739 576.502 258.275C576.502 258.803 576.933 259.233 577.46 259.233ZM581.898 264.92V257.317H580.369V270H581.898V266.555L582.751 265.746L586.144 270H587.919L583.832 264.806L587.796 260.859H585.941L581.898 264.92ZM592.252 262.028C593.693 262.028 594.651 263.118 594.687 264.647H589.721C589.817 263.127 590.819 262.028 592.252 262.028ZM594.651 267.381C594.396 268.242 593.544 268.831 592.384 268.831C590.74 268.831 589.712 267.68 589.712 265.931V265.843H596.269V265.263C596.269 262.494 594.748 260.701 592.278 260.701C589.756 260.701 588.139 262.626 588.139 265.465C588.139 268.339 589.729 270.158 592.349 270.158C594.344 270.158 595.891 268.98 596.154 267.381H594.651ZM605.945 260.701C604.618 260.701 603.555 261.378 602.992 262.406H602.957V260.859H601.507V273.05H603.036V268.515H603.071C603.616 269.517 604.671 270.158 605.98 270.158C608.283 270.158 609.856 268.295 609.856 265.43C609.856 262.564 608.274 260.701 605.945 260.701ZM605.646 268.813C604.082 268.813 603.027 267.469 603.027 265.43C603.027 263.399 604.082 262.046 605.646 262.046C607.272 262.046 608.292 263.364 608.292 265.43C608.292 267.504 607.272 268.813 605.646 268.813ZM611.403 270H612.933V264.305C612.933 263.013 613.706 262.16 614.893 262.16C615.262 262.16 615.587 262.204 615.71 262.248V260.763C615.587 260.745 615.358 260.701 615.095 260.701C614.022 260.701 613.179 261.343 612.88 262.354H612.845V260.859H611.403V270ZM620.307 270.158C622.829 270.158 624.534 268.339 624.534 265.43C624.534 262.512 622.829 260.701 620.307 260.701C617.775 260.701 616.07 262.512 616.07 265.43C616.07 268.339 617.775 270.158 620.307 270.158ZM620.307 268.813C618.689 268.813 617.626 267.583 617.626 265.43C617.626 263.276 618.689 262.046 620.307 262.046C621.924 262.046 622.979 263.276 622.979 265.43C622.979 267.583 621.924 268.813 620.307 268.813ZM629.544 270.158C630.862 270.158 631.908 269.508 632.497 268.453H632.523V270H633.982V257.317H632.453V262.345H632.418C631.873 261.343 630.818 260.701 629.509 260.701C627.206 260.701 625.633 262.564 625.633 265.43C625.633 268.295 627.215 270.158 629.544 270.158ZM629.834 262.046C631.407 262.046 632.462 263.391 632.462 265.43C632.462 267.478 631.407 268.813 629.834 268.813C628.217 268.813 627.197 267.504 627.197 265.43C627.197 263.364 628.217 262.046 629.834 262.046ZM643.554 260.859H642.024V266.229C642.024 267.785 641.128 268.805 639.643 268.805C638.228 268.805 637.533 268.005 637.533 266.52V260.859H636.004V266.792C636.004 268.866 637.173 270.158 639.168 270.158C640.574 270.158 641.523 269.569 642.068 268.515H642.104V270H643.554V260.859ZM653.134 263.856C652.94 262.213 651.578 260.701 649.293 260.701C646.771 260.701 645.092 262.547 645.092 265.43C645.092 268.374 646.779 270.158 649.311 270.158C651.385 270.158 652.914 268.875 653.151 267.056H651.648C651.385 268.154 650.567 268.813 649.319 268.813C647.737 268.813 646.647 267.557 646.647 265.43C646.647 263.355 647.72 262.046 649.302 262.046C650.646 262.046 651.42 262.863 651.64 263.856H653.134ZM655.05 258.653V260.859H653.688V262.116H655.05V267.627C655.05 269.385 655.7 270.07 657.379 270.07C657.739 270.07 658.161 270.044 658.346 270V268.717C658.24 268.734 657.889 268.761 657.713 268.761C656.931 268.761 656.579 268.383 656.579 267.548V262.116H658.354V260.859H656.579V258.653H655.05Z" fill="black"/>
<rect x="484" width="201" height="126" fill="#E0E0E0"/>
<path d="M542.831 68.5762H536.714V57.3174H535.132V70H542.831V68.5762ZM544.413 70H545.942V60.8594H544.413V70ZM545.178 59.2334C545.714 59.2334 546.136 58.8027 546.136 58.2754C546.136 57.7393 545.714 57.3174 545.178 57.3174C544.65 57.3174 544.22 57.7393 544.22 58.2754C544.22 58.8027 544.65 59.2334 545.178 59.2334ZM549.616 64.9199V57.3174H548.087V70H549.616V66.5547L550.469 65.7461L553.861 70H555.637L551.55 64.8057L555.514 60.8594H553.659L549.616 64.9199ZM559.97 62.0283C561.411 62.0283 562.369 63.1182 562.404 64.6475H557.438C557.535 63.127 558.537 62.0283 559.97 62.0283ZM562.369 67.3809C562.114 68.2422 561.262 68.8311 560.102 68.8311C558.458 68.8311 557.43 67.6797 557.43 65.9307V65.8428H563.986V65.2627C563.986 62.4941 562.466 60.7012 559.996 60.7012C557.474 60.7012 555.856 62.626 555.856 65.4648C555.856 68.3389 557.447 70.1582 560.066 70.1582C562.062 70.1582 563.608 68.9805 563.872 67.3809H562.369ZM565.375 63.3818C565.375 64.7002 566.21 65.5 567.933 65.9131L569.383 66.2646C570.429 66.5195 570.789 66.8975 570.789 67.5566C570.789 68.3828 570.024 68.9102 568.785 68.9102C567.546 68.9102 566.843 68.4092 566.658 67.3633H565.129C565.305 69.0771 566.641 70.1582 568.785 70.1582C570.824 70.1582 572.327 69.0332 572.327 67.4424C572.327 66.1328 571.659 65.4121 569.813 64.9639L568.363 64.6123C567.344 64.3662 566.878 63.9355 566.878 63.3027C566.878 62.5029 567.616 61.9492 568.732 61.9492C569.857 61.9492 570.561 62.5381 570.675 63.4961H572.134C572.072 61.8789 570.736 60.7012 568.732 60.7012C566.755 60.7012 565.375 61.8174 565.375 63.3818ZM582.048 60.7012C580.721 60.7012 579.657 61.3779 579.095 62.4062H579.06V60.8594H577.609V73.0498H579.139V68.5146H579.174C579.719 69.5166 580.773 70.1582 582.083 70.1582C584.386 70.1582 585.959 68.2949 585.959 65.4297C585.959 62.5645 584.377 60.7012 582.048 60.7012ZM581.749 68.8135C580.185 68.8135 579.13 67.4688 579.13 65.4297C579.13 63.3994 580.185 62.0459 581.749 62.0459C583.375 62.0459 584.395 63.3643 584.395 65.4297C584.395 67.5039 583.375 68.8135 581.749 68.8135ZM587.506 70H589.035V64.3047C589.035 63.0127 589.809 62.1602 590.995 62.1602C591.364 62.1602 591.689 62.2041 591.812 62.248V60.7627C591.689 60.7451 591.461 60.7012 591.197 60.7012C590.125 60.7012 589.281 61.3428 588.982 62.3535H588.947V60.8594H587.506V70ZM596.409 70.1582C598.932 70.1582 600.637 68.3389 600.637 65.4297C600.637 62.5117 598.932 60.7012 596.409 60.7012C593.878 60.7012 592.173 62.5117 592.173 65.4297C592.173 68.3389 593.878 70.1582 596.409 70.1582ZM596.409 68.8135C594.792 68.8135 593.729 67.583 593.729 65.4297C593.729 63.2764 594.792 62.0459 596.409 62.0459C598.026 62.0459 599.081 63.2764 599.081 65.4297C599.081 67.583 598.026 68.8135 596.409 68.8135ZM605.646 70.1582C606.965 70.1582 608.011 69.5078 608.6 68.4531H608.626V70H610.085V57.3174H608.556V62.3447H608.521C607.976 61.3428 606.921 60.7012 605.611 60.7012C603.309 60.7012 601.735 62.5645 601.735 65.4297C601.735 68.2949 603.317 70.1582 605.646 70.1582ZM605.937 62.0459C607.51 62.0459 608.564 63.3906 608.564 65.4297C608.564 67.4775 607.51 68.8135 605.937 68.8135C604.319 68.8135 603.3 67.5039 603.3 65.4297C603.3 63.3643 604.319 62.0459 605.937 62.0459ZM619.656 60.8594H618.127V66.2295C618.127 67.7852 617.23 68.8047 615.745 68.8047C614.33 68.8047 613.636 68.0049 613.636 66.5195V60.8594H612.106V66.792C612.106 68.8662 613.275 70.1582 615.271 70.1582C616.677 70.1582 617.626 69.5693 618.171 68.5146H618.206V70H619.656V60.8594ZM629.236 63.8564C629.043 62.2129 627.681 60.7012 625.396 60.7012C622.873 60.7012 621.194 62.5469 621.194 65.4297C621.194 68.374 622.882 70.1582 625.413 70.1582C627.487 70.1582 629.017 68.875 629.254 67.0557H627.751C627.487 68.1543 626.67 68.8135 625.422 68.8135C623.84 68.8135 622.75 67.5566 622.75 65.4297C622.75 63.3555 623.822 62.0459 625.404 62.0459C626.749 62.0459 627.522 62.8633 627.742 63.8564H629.236ZM631.152 58.6533V60.8594H629.79V62.1162H631.152V67.627C631.152 69.3848 631.803 70.0703 633.481 70.0703C633.842 70.0703 634.264 70.0439 634.448 70V68.7168C634.343 68.7344 633.991 68.7607 633.815 68.7607C633.033 68.7607 632.682 68.3828 632.682 67.5479V62.1162H634.457V60.8594H632.682V58.6533H631.152Z" fill="black"/>
<path d="M445.788 113.394C446.037 112.318 445.366 111.244 444.289 110.996L426.751 106.946C425.675 106.698 424.601 107.369 424.352 108.445C424.104 109.522 424.775 110.595 425.851 110.844L441.441 114.443L437.842 130.033C437.593 131.109 438.264 132.183 439.341 132.432C440.417 132.68 441.491 132.009 441.739 130.933L445.788 113.394ZM360.095 167.632L444.899 114.64L442.78 111.248L357.975 164.24L360.095 167.632Z" fill="#888888"/>
<path d="M811.414 64.4142C812.195 63.6332 812.195 62.3668 811.414 61.5858L798.686 48.8579C797.905 48.0768 796.639 48.0768 795.858 48.8579C795.077 49.6389 795.077 50.9052 795.858 51.6863L807.172 63L795.858 74.3137C795.077 75.0948 795.077 76.3611 795.858 77.1421C796.639 77.9232 797.905 77.9232 798.686 77.1421L811.414 64.4142ZM710 65H810V61H710V65Z" fill="#888888"/>
<path d="M811.414 264.414C812.195 263.633 812.195 262.367 811.414 261.586L798.686 248.858C797.905 248.077 796.639 248.077 795.858 248.858C795.077 249.639 795.077 250.905 795.858 251.686L807.172 263L795.858 274.314C795.077 275.095 795.077 276.361 795.858 277.142C796.639 277.923 797.905 277.923 798.686 277.142L811.414 264.414ZM710 265H810V261H710V265Z" fill="#888888"/>
<path d="M442.349 224.188C443.43 223.959 444.119 222.897 443.89 221.816L440.147 204.209C439.918 203.129 438.856 202.439 437.775 202.669C436.695 202.899 436.005 203.961 436.235 205.041L439.561 220.691L423.911 224.018C422.831 224.248 422.141 225.31 422.371 226.39C422.6 227.471 423.662 228.16 424.743 227.931L442.349 224.188ZM356.977 169.445L440.844 223.909L443.023 220.555L359.156 166.091L356.977 169.445Z" fill="#888888"/>
<line x1="3.66959" y1="132.42" x2="46.193" y2="183.098" stroke="#FF0B0B" stroke-width="6"/>
<line x1="3.17843" y1="182.249" x2="45.7019" y2="131.571" stroke="#FF0B0B" stroke-width="6"/>
</svg>
