<svg width="1219" height="777" viewBox="0 0 1219 777" fill="none" xmlns="http://www.w3.org/2000/svg">
<rect x="129" y="372" width="201" height="126" fill="#E0E0E0"/>
<path d="M164.637 431.937H164.725L167.651 442H169.146L172.6 429.317H170.947L168.407 439.671H168.337L165.48 429.317H163.881L161.024 439.671H160.954L158.414 429.317H156.762L160.216 442H161.71L164.637 431.937ZM174.067 442H175.597V432.859H174.067V442ZM174.832 431.233C175.368 431.233 175.79 430.803 175.79 430.275C175.79 429.739 175.368 429.317 174.832 429.317C174.305 429.317 173.874 429.739 173.874 430.275C173.874 430.803 174.305 431.233 174.832 431.233ZM177.504 435.382C177.504 436.7 178.339 437.5 180.062 437.913L181.512 438.265C182.558 438.52 182.918 438.897 182.918 439.557C182.918 440.383 182.153 440.91 180.914 440.91C179.675 440.91 178.972 440.409 178.787 439.363H177.258C177.434 441.077 178.77 442.158 180.914 442.158C182.953 442.158 184.456 441.033 184.456 439.442C184.456 438.133 183.788 437.412 181.942 436.964L180.492 436.612C179.473 436.366 179.007 435.936 179.007 435.303C179.007 434.503 179.745 433.949 180.861 433.949C181.986 433.949 182.689 434.538 182.804 435.496H184.263C184.201 433.879 182.865 432.701 180.861 432.701C178.884 432.701 177.504 433.817 177.504 435.382ZM186.126 442H187.655V436.674C187.655 435.092 188.596 434.055 190.116 434.055C191.549 434.055 192.278 434.925 192.278 436.375V442H193.808V436.094C193.808 434.055 192.595 432.701 190.591 432.701C189.202 432.701 188.2 433.299 187.69 434.318H187.655V429.317H186.126V442ZM201.261 429.317H199.679V437.553C199.679 440.26 201.568 442.211 204.715 442.211C207.861 442.211 209.751 440.26 209.751 437.553V429.317H208.169V437.447C208.169 439.363 206.912 440.752 204.715 440.752C202.518 440.752 201.261 439.363 201.261 437.447V429.317ZM211.816 435.382C211.816 436.7 212.651 437.5 214.374 437.913L215.824 438.265C216.87 438.52 217.23 438.897 217.23 439.557C217.23 440.383 216.466 440.91 215.227 440.91C213.987 440.91 213.284 440.409 213.1 439.363H211.57C211.746 441.077 213.082 442.158 215.227 442.158C217.266 442.158 218.769 441.033 218.769 439.442C218.769 438.133 218.101 437.412 216.255 436.964L214.805 436.612C213.785 436.366 213.319 435.936 213.319 435.303C213.319 434.503 214.058 433.949 215.174 433.949C216.299 433.949 217.002 434.538 217.116 435.496H218.575C218.514 433.879 217.178 432.701 215.174 432.701C213.196 432.701 211.816 433.817 211.816 435.382ZM224.024 434.028C225.466 434.028 226.424 435.118 226.459 436.647H221.493C221.59 435.127 222.592 434.028 224.024 434.028ZM226.424 439.381C226.169 440.242 225.316 440.831 224.156 440.831C222.513 440.831 221.484 439.68 221.484 437.931V437.843H228.041V437.263C228.041 434.494 226.521 432.701 224.051 432.701C221.528 432.701 219.911 434.626 219.911 437.465C219.911 440.339 221.502 442.158 224.121 442.158C226.116 442.158 227.663 440.98 227.927 439.381H226.424ZM229.588 442H231.117V436.305C231.117 435.013 231.891 434.16 233.077 434.16C233.446 434.16 233.771 434.204 233.895 434.248V432.763C233.771 432.745 233.543 432.701 233.279 432.701C232.207 432.701 231.363 433.343 231.064 434.354H231.029V432.859H229.588V442ZM238.456 438.599C238.605 440.787 240.451 442.211 243.22 442.211C246.059 442.211 247.904 440.743 247.904 438.396C247.904 436.604 246.858 435.549 244.213 434.969L242.807 434.661C241.075 434.283 240.398 433.598 240.398 432.596C240.398 431.304 241.62 430.53 243.202 430.53C244.854 430.53 245.953 431.383 246.094 432.771H247.676C247.605 430.618 245.777 429.106 243.246 429.106C240.618 429.106 238.772 430.574 238.772 432.666C238.772 434.468 239.871 435.619 242.411 436.173L243.817 436.48C245.575 436.867 246.278 437.57 246.278 438.634C246.278 439.882 245.03 440.787 243.308 440.787C241.488 440.787 240.223 439.961 240.038 438.599H238.456ZM257.115 435.856C256.922 434.213 255.56 432.701 253.274 432.701C250.752 432.701 249.073 434.547 249.073 437.43C249.073 440.374 250.761 442.158 253.292 442.158C255.366 442.158 256.896 440.875 257.133 439.056H255.63C255.366 440.154 254.549 440.813 253.301 440.813C251.719 440.813 250.629 439.557 250.629 437.43C250.629 435.355 251.701 434.046 253.283 434.046C254.628 434.046 255.401 434.863 255.621 435.856H257.115ZM258.539 442H260.068V436.305C260.068 435.013 260.842 434.16 262.028 434.16C262.397 434.16 262.723 434.204 262.846 434.248V432.763C262.723 432.745 262.494 432.701 262.23 432.701C261.158 432.701 260.314 433.343 260.016 434.354H259.98V432.859H258.539V442ZM267.442 442.158C269.965 442.158 271.67 440.339 271.67 437.43C271.67 434.512 269.965 432.701 267.442 432.701C264.911 432.701 263.206 434.512 263.206 437.43C263.206 440.339 264.911 442.158 267.442 442.158ZM267.442 440.813C265.825 440.813 264.762 439.583 264.762 437.43C264.762 435.276 265.825 434.046 267.442 434.046C269.06 434.046 270.114 435.276 270.114 437.43C270.114 439.583 269.06 440.813 267.442 440.813ZM273.296 442H274.825V429.317H273.296V442ZM276.97 442H278.499V429.317H276.97V442ZM280.644 442H282.173V432.859H280.644V442ZM281.408 431.233C281.944 431.233 282.366 430.803 282.366 430.275C282.366 429.739 281.944 429.317 281.408 429.317C280.881 429.317 280.45 429.739 280.45 430.275C280.45 430.803 280.881 431.233 281.408 431.233ZM284.238 442H285.768V436.621C285.768 435.074 286.708 434.055 288.149 434.055C289.556 434.055 290.25 434.863 290.25 436.34V442H291.779V436.067C291.779 433.993 290.619 432.701 288.615 432.701C287.2 432.701 286.225 433.334 285.715 434.318H285.68V432.859H284.238V442ZM297.448 440.726C295.875 440.726 294.847 439.442 294.847 437.395C294.847 435.347 295.875 434.046 297.448 434.046C299.039 434.046 300.103 435.382 300.103 437.395C300.103 439.407 299.039 440.726 297.448 440.726ZM297.501 445.445C300.023 445.445 301.632 443.995 301.632 441.815V432.859H300.173V434.397H300.146C299.54 433.334 298.468 432.701 297.176 432.701C294.812 432.701 293.282 434.529 293.282 437.395C293.282 440.233 294.812 442.07 297.141 442.07C298.424 442.07 299.505 441.42 300.067 440.427H300.103V441.868C300.103 443.23 299.145 444.145 297.562 444.145C296.42 444.145 295.515 443.591 295.216 442.756H293.643C293.897 444.312 295.488 445.445 297.501 445.445Z" fill="black"/>
<rect x="500" y="486" width="201" height="126" fill="#E0E0E0"/>
<path d="M527.234 543.317V556H531.497C535.268 556 537.482 553.653 537.482 549.654C537.482 545.664 535.259 543.317 531.497 543.317H527.234ZM528.816 544.741H531.392C534.274 544.741 535.865 546.499 535.865 549.672C535.865 552.818 534.266 554.576 531.392 554.576H528.816V544.741ZM543.002 556.158C545.524 556.158 547.229 554.339 547.229 551.43C547.229 548.512 545.524 546.701 543.002 546.701C540.471 546.701 538.766 548.512 538.766 551.43C538.766 554.339 540.471 556.158 543.002 556.158ZM543.002 554.813C541.385 554.813 540.321 553.583 540.321 551.43C540.321 549.276 541.385 548.046 543.002 548.046C544.619 548.046 545.674 549.276 545.674 551.43C545.674 553.583 544.619 554.813 543.002 554.813ZM552.441 548.028C553.883 548.028 554.841 549.118 554.876 550.647H549.91C550.007 549.127 551.009 548.028 552.441 548.028ZM554.841 553.381C554.586 554.242 553.733 554.831 552.573 554.831C550.93 554.831 549.901 553.68 549.901 551.931V551.843H556.458V551.263C556.458 548.494 554.938 546.701 552.468 546.701C549.945 546.701 548.328 548.626 548.328 551.465C548.328 554.339 549.919 556.158 552.538 556.158C554.533 556.158 556.08 554.98 556.344 553.381H554.841ZM557.847 549.382C557.847 550.7 558.682 551.5 560.404 551.913L561.854 552.265C562.9 552.52 563.261 552.897 563.261 553.557C563.261 554.383 562.496 554.91 561.257 554.91C560.018 554.91 559.314 554.409 559.13 553.363H557.601C557.776 555.077 559.112 556.158 561.257 556.158C563.296 556.158 564.799 555.033 564.799 553.442C564.799 552.133 564.131 551.412 562.285 550.964L560.835 550.612C559.815 550.366 559.35 549.936 559.35 549.303C559.35 548.503 560.088 547.949 561.204 547.949C562.329 547.949 563.032 548.538 563.146 549.496H564.605C564.544 547.879 563.208 546.701 561.204 546.701C559.227 546.701 557.847 547.817 557.847 549.382ZM566.39 556H567.919V550.621C567.919 549.074 568.859 548.055 570.301 548.055C571.707 548.055 572.401 548.863 572.401 550.34V556H573.931V550.067C573.931 547.993 572.771 546.701 570.767 546.701C569.352 546.701 568.376 547.334 567.866 548.318H567.831V546.859H566.39V556ZM576.497 547.791L577.701 543.317H576.075L575.223 547.791H576.497ZM580.312 544.653V546.859H578.949V548.116H580.312V553.627C580.312 555.385 580.962 556.07 582.641 556.07C583.001 556.07 583.423 556.044 583.607 556V554.717C583.502 554.734 583.15 554.761 582.975 554.761C582.192 554.761 581.841 554.383 581.841 553.548V548.116H583.616V546.859H581.841V544.653H580.312ZM589.021 556H590.551V543.317H589.021V556ZM592.695 556H594.225V546.859H592.695V556ZM593.46 545.233C593.996 545.233 594.418 544.803 594.418 544.275C594.418 543.739 593.996 543.317 593.46 543.317C592.933 543.317 592.502 543.739 592.502 544.275C592.502 544.803 592.933 545.233 593.46 545.233ZM597.898 550.92V543.317H596.369V556H597.898V552.555L598.751 551.746L602.144 556H603.919L599.832 550.806L603.796 546.859H601.941L597.898 550.92ZM608.252 548.028C609.693 548.028 610.651 549.118 610.687 550.647H605.721C605.817 549.127 606.819 548.028 608.252 548.028ZM610.651 553.381C610.396 554.242 609.544 554.831 608.384 554.831C606.74 554.831 605.712 553.68 605.712 551.931V551.843H612.269V551.263C612.269 548.494 610.748 546.701 608.278 546.701C605.756 546.701 604.139 548.626 604.139 551.465C604.139 554.339 605.729 556.158 608.349 556.158C610.344 556.158 611.891 554.98 612.154 553.381H610.651ZM621.945 546.701C620.618 546.701 619.555 547.378 618.992 548.406H618.957V546.859H617.507V559.05H619.036V554.515H619.071C619.616 555.517 620.671 556.158 621.98 556.158C624.283 556.158 625.856 554.295 625.856 551.43C625.856 548.564 624.274 546.701 621.945 546.701ZM621.646 554.813C620.082 554.813 619.027 553.469 619.027 551.43C619.027 549.399 620.082 548.046 621.646 548.046C623.272 548.046 624.292 549.364 624.292 551.43C624.292 553.504 623.272 554.813 621.646 554.813ZM627.403 556H628.933V550.305C628.933 549.013 629.706 548.16 630.893 548.16C631.262 548.16 631.587 548.204 631.71 548.248V546.763C631.587 546.745 631.358 546.701 631.095 546.701C630.022 546.701 629.179 547.343 628.88 548.354H628.845V546.859H627.403V556ZM636.307 556.158C638.829 556.158 640.534 554.339 640.534 551.43C640.534 548.512 638.829 546.701 636.307 546.701C633.775 546.701 632.07 548.512 632.07 551.43C632.07 554.339 633.775 556.158 636.307 556.158ZM636.307 554.813C634.689 554.813 633.626 553.583 633.626 551.43C633.626 549.276 634.689 548.046 636.307 548.046C637.924 548.046 638.979 549.276 638.979 551.43C638.979 553.583 637.924 554.813 636.307 554.813ZM645.544 556.158C646.862 556.158 647.908 555.508 648.497 554.453H648.523V556H649.982V543.317H648.453V548.345H648.418C647.873 547.343 646.818 546.701 645.509 546.701C643.206 546.701 641.633 548.564 641.633 551.43C641.633 554.295 643.215 556.158 645.544 556.158ZM645.834 548.046C647.407 548.046 648.462 549.391 648.462 551.43C648.462 553.478 647.407 554.813 645.834 554.813C644.217 554.813 643.197 553.504 643.197 551.43C643.197 549.364 644.217 548.046 645.834 548.046ZM659.554 546.859H658.024V552.229C658.024 553.785 657.128 554.805 655.643 554.805C654.228 554.805 653.533 554.005 653.533 552.52V546.859H652.004V552.792C652.004 554.866 653.173 556.158 655.168 556.158C656.574 556.158 657.523 555.569 658.068 554.515H658.104V556H659.554V546.859ZM669.134 549.856C668.94 548.213 667.578 546.701 665.293 546.701C662.771 546.701 661.092 548.547 661.092 551.43C661.092 554.374 662.779 556.158 665.311 556.158C667.385 556.158 668.914 554.875 669.151 553.056H667.648C667.385 554.154 666.567 554.813 665.319 554.813C663.737 554.813 662.647 553.557 662.647 551.43C662.647 549.355 663.72 548.046 665.302 548.046C666.646 548.046 667.42 548.863 667.64 549.856H669.134ZM671.05 544.653V546.859H669.688V548.116H671.05V553.627C671.05 555.385 671.7 556.07 673.379 556.07C673.739 556.07 674.161 556.044 674.346 556V554.717C674.24 554.734 673.889 554.761 673.713 554.761C672.931 554.761 672.579 554.383 672.579 553.548V548.116H674.354V546.859H672.579V544.653H671.05Z" fill="black"/>
<rect x="500" y="286" width="201" height="126" fill="#E0E0E0"/>
<path d="M558.831 354.576H552.714V343.317H551.132V356H558.831V354.576ZM560.413 356H561.942V346.859H560.413V356ZM561.178 345.233C561.714 345.233 562.136 344.803 562.136 344.275C562.136 343.739 561.714 343.317 561.178 343.317C560.65 343.317 560.22 343.739 560.22 344.275C560.22 344.803 560.65 345.233 561.178 345.233ZM565.616 350.92V343.317H564.087V356H565.616V352.555L566.469 351.746L569.861 356H571.637L567.55 350.806L571.514 346.859H569.659L565.616 350.92ZM575.97 348.028C577.411 348.028 578.369 349.118 578.404 350.647H573.438C573.535 349.127 574.537 348.028 575.97 348.028ZM578.369 353.381C578.114 354.242 577.262 354.831 576.102 354.831C574.458 354.831 573.43 353.68 573.43 351.931V351.843H579.986V351.263C579.986 348.494 578.466 346.701 575.996 346.701C573.474 346.701 571.856 348.626 571.856 351.465C571.856 354.339 573.447 356.158 576.066 356.158C578.062 356.158 579.608 354.98 579.872 353.381H578.369ZM581.375 349.382C581.375 350.7 582.21 351.5 583.933 351.913L585.383 352.265C586.429 352.52 586.789 352.897 586.789 353.557C586.789 354.383 586.024 354.91 584.785 354.91C583.546 354.91 582.843 354.409 582.658 353.363H581.129C581.305 355.077 582.641 356.158 584.785 356.158C586.824 356.158 588.327 355.033 588.327 353.442C588.327 352.133 587.659 351.412 585.813 350.964L584.363 350.612C583.344 350.366 582.878 349.936 582.878 349.303C582.878 348.503 583.616 347.949 584.732 347.949C585.857 347.949 586.561 348.538 586.675 349.496H588.134C588.072 347.879 586.736 346.701 584.732 346.701C582.755 346.701 581.375 347.817 581.375 349.382ZM598.048 346.701C596.721 346.701 595.657 347.378 595.095 348.406H595.06V346.859H593.609V359.05H595.139V354.515H595.174C595.719 355.517 596.773 356.158 598.083 356.158C600.386 356.158 601.959 354.295 601.959 351.43C601.959 348.564 600.377 346.701 598.048 346.701ZM597.749 354.813C596.185 354.813 595.13 353.469 595.13 351.43C595.13 349.399 596.185 348.046 597.749 348.046C599.375 348.046 600.395 349.364 600.395 351.43C600.395 353.504 599.375 354.813 597.749 354.813ZM603.506 356H605.035V350.305C605.035 349.013 605.809 348.16 606.995 348.16C607.364 348.16 607.689 348.204 607.812 348.248V346.763C607.689 346.745 607.461 346.701 607.197 346.701C606.125 346.701 605.281 347.343 604.982 348.354H604.947V346.859H603.506V356ZM612.409 356.158C614.932 356.158 616.637 354.339 616.637 351.43C616.637 348.512 614.932 346.701 612.409 346.701C609.878 346.701 608.173 348.512 608.173 351.43C608.173 354.339 609.878 356.158 612.409 356.158ZM612.409 354.813C610.792 354.813 609.729 353.583 609.729 351.43C609.729 349.276 610.792 348.046 612.409 348.046C614.026 348.046 615.081 349.276 615.081 351.43C615.081 353.583 614.026 354.813 612.409 354.813ZM621.646 356.158C622.965 356.158 624.011 355.508 624.6 354.453H624.626V356H626.085V343.317H624.556V348.345H624.521C623.976 347.343 622.921 346.701 621.611 346.701C619.309 346.701 617.735 348.564 617.735 351.43C617.735 354.295 619.317 356.158 621.646 356.158ZM621.937 348.046C623.51 348.046 624.564 349.391 624.564 351.43C624.564 353.478 623.51 354.813 621.937 354.813C620.319 354.813 619.3 353.504 619.3 351.43C619.3 349.364 620.319 348.046 621.937 348.046ZM635.656 346.859H634.127V352.229C634.127 353.785 633.23 354.805 631.745 354.805C630.33 354.805 629.636 354.005 629.636 352.52V346.859H628.106V352.792C628.106 354.866 629.275 356.158 631.271 356.158C632.677 356.158 633.626 355.569 634.171 354.515H634.206V356H635.656V346.859ZM645.236 349.856C645.043 348.213 643.681 346.701 641.396 346.701C638.873 346.701 637.194 348.547 637.194 351.43C637.194 354.374 638.882 356.158 641.413 356.158C643.487 356.158 645.017 354.875 645.254 353.056H643.751C643.487 354.154 642.67 354.813 641.422 354.813C639.84 354.813 638.75 353.557 638.75 351.43C638.75 349.355 639.822 348.046 641.404 348.046C642.749 348.046 643.522 348.863 643.742 349.856H645.236ZM647.152 344.653V346.859H645.79V348.116H647.152V353.627C647.152 355.385 647.803 356.07 649.481 356.07C649.842 356.07 650.264 356.044 650.448 356V354.717C650.343 354.734 649.991 354.761 649.815 354.761C649.033 354.761 648.682 354.383 648.682 353.548V348.116H650.457V346.859H648.682V344.653H647.152Z" fill="black"/>
<rect x="868" y="446" width="201" height="126" fill="#E0E0E0"/>
<path d="M918.385 483.937H918.473L921.399 494H922.894L926.348 481.317H924.695L922.155 491.671H922.085L919.229 481.317H917.629L914.772 491.671H914.702L912.162 481.317H910.51L913.964 494H915.458L918.385 483.937ZM929.521 492.857C928.422 492.857 927.692 492.286 927.692 491.416C927.692 490.555 928.396 490.01 929.626 489.931L932.069 489.781V490.528C932.069 491.847 930.962 492.857 929.521 492.857ZM929.178 494.158C930.408 494.158 931.568 493.473 932.113 492.427H932.148V494H933.599V487.681C933.599 485.861 932.245 484.701 930.101 484.701C927.938 484.701 926.585 485.914 926.479 487.496H927.956C928.149 486.6 928.888 486.046 930.065 486.046C931.331 486.046 932.069 486.714 932.069 487.83V488.595L929.45 488.744C927.341 488.867 926.137 489.852 926.137 491.416C926.137 493.06 927.358 494.158 929.178 494.158ZM935.541 494H937.07V488.621C937.07 487.074 938.011 486.055 939.452 486.055C940.858 486.055 941.553 486.863 941.553 488.34V494H943.082V488.067C943.082 485.993 941.922 484.701 939.918 484.701C938.503 484.701 937.527 485.334 937.018 486.318H936.982V484.859H935.541V494ZM945.525 482.653V484.859H944.163V486.116H945.525V491.627C945.525 493.385 946.176 494.07 947.854 494.07C948.215 494.07 948.637 494.044 948.821 494V492.717C948.716 492.734 948.364 492.761 948.188 492.761C947.406 492.761 947.055 492.383 947.055 491.548V486.116H948.83V484.859H947.055V482.653H945.525ZM950.307 487.382C950.307 488.7 951.142 489.5 952.864 489.913L954.314 490.265C955.36 490.52 955.721 490.897 955.721 491.557C955.721 492.383 954.956 492.91 953.717 492.91C952.478 492.91 951.774 492.409 951.59 491.363H950.061C950.236 493.077 951.572 494.158 953.717 494.158C955.756 494.158 957.259 493.033 957.259 491.442C957.259 490.133 956.591 489.412 954.745 488.964L953.295 488.612C952.275 488.366 951.81 487.936 951.81 487.303C951.81 486.503 952.548 485.949 953.664 485.949C954.789 485.949 955.492 486.538 955.606 487.496H957.065C957.004 485.879 955.668 484.701 953.664 484.701C951.687 484.701 950.307 485.817 950.307 487.382ZM963.033 482.653V484.859H961.671V486.116H963.033V491.627C963.033 493.385 963.684 494.07 965.362 494.07C965.723 494.07 966.145 494.044 966.329 494V492.717C966.224 492.734 965.872 492.761 965.696 492.761C964.914 492.761 964.562 492.383 964.562 491.548V486.116H966.338V484.859H964.562V482.653H963.033ZM971.497 494.158C974.02 494.158 975.725 492.339 975.725 489.43C975.725 486.512 974.02 484.701 971.497 484.701C968.966 484.701 967.261 486.512 967.261 489.43C967.261 492.339 968.966 494.158 971.497 494.158ZM971.497 492.813C969.88 492.813 968.816 491.583 968.816 489.43C968.816 487.276 969.88 486.046 971.497 486.046C973.114 486.046 974.169 487.276 974.169 489.43C974.169 491.583 973.114 492.813 971.497 492.813ZM980.805 487.382C980.805 488.7 981.64 489.5 983.362 489.913L984.812 490.265C985.858 490.52 986.219 490.897 986.219 491.557C986.219 492.383 985.454 492.91 984.215 492.91C982.976 492.91 982.272 492.409 982.088 491.363H980.559C980.734 493.077 982.07 494.158 984.215 494.158C986.254 494.158 987.757 493.033 987.757 491.442C987.757 490.133 987.089 489.412 985.243 488.964L983.793 488.612C982.773 488.366 982.308 487.936 982.308 487.303C982.308 486.503 983.046 485.949 984.162 485.949C985.287 485.949 985.99 486.538 986.104 487.496H987.563C987.502 485.879 986.166 484.701 984.162 484.701C982.185 484.701 980.805 485.817 980.805 487.382ZM993.013 486.028C994.454 486.028 995.412 487.118 995.447 488.647H990.481C990.578 487.127 991.58 486.028 993.013 486.028ZM995.412 491.381C995.157 492.242 994.305 492.831 993.145 492.831C991.501 492.831 990.473 491.68 990.473 489.931V489.843H997.029V489.263C997.029 486.494 995.509 484.701 993.039 484.701C990.517 484.701 988.899 486.626 988.899 489.465C988.899 492.339 990.49 494.158 993.109 494.158C995.104 494.158 996.651 492.98 996.915 491.381H995.412ZM1002.24 486.028C1003.68 486.028 1004.64 487.118 1004.68 488.647H999.71C999.807 487.127 1000.81 486.028 1002.24 486.028ZM1004.64 491.381C1004.39 492.242 1003.53 492.831 1002.37 492.831C1000.73 492.831 999.701 491.68 999.701 489.931V489.843H1006.26V489.263C1006.26 486.494 1004.74 484.701 1002.27 484.701C999.745 484.701 998.128 486.626 998.128 489.465C998.128 492.339 999.719 494.158 1002.34 494.158C1004.33 494.158 1005.88 492.98 1006.14 491.381H1004.64ZM1014.51 492.857C1013.41 492.857 1012.68 492.286 1012.68 491.416C1012.68 490.555 1013.39 490.01 1014.62 489.931L1017.06 489.781V490.528C1017.06 491.847 1015.95 492.857 1014.51 492.857ZM1014.17 494.158C1015.4 494.158 1016.56 493.473 1017.1 492.427H1017.14V494H1018.59V487.681C1018.59 485.861 1017.24 484.701 1015.09 484.701C1012.93 484.701 1011.58 485.914 1011.47 487.496H1012.95C1013.14 486.6 1013.88 486.046 1015.06 486.046C1016.32 486.046 1017.06 486.714 1017.06 487.83V488.595L1014.44 488.744C1012.33 488.867 1011.13 489.852 1011.13 491.416C1011.13 493.06 1012.35 494.158 1014.17 494.158ZM1020.61 494H1022.14V481.317H1020.61V494ZM1024.28 494H1025.81V481.317H1024.28V494ZM919.36 516.158C921.883 516.158 923.588 514.339 923.588 511.43C923.588 508.512 921.883 506.701 919.36 506.701C916.829 506.701 915.124 508.512 915.124 511.43C915.124 514.339 916.829 516.158 919.36 516.158ZM919.36 514.813C917.743 514.813 916.68 513.583 916.68 511.43C916.68 509.276 917.743 508.046 919.36 508.046C920.978 508.046 922.032 509.276 922.032 511.43C922.032 513.583 920.978 514.813 919.36 514.813ZM929.573 506.701C928.246 506.701 927.183 507.378 926.62 508.406H926.585V506.859H925.135V519.05H926.664V514.515H926.699C927.244 515.517 928.299 516.158 929.608 516.158C931.911 516.158 933.484 514.295 933.484 511.43C933.484 508.564 931.902 506.701 929.573 506.701ZM929.274 514.813C927.71 514.813 926.655 513.469 926.655 511.43C926.655 509.399 927.71 508.046 929.274 508.046C930.9 508.046 931.92 509.364 931.92 511.43C931.92 513.504 930.9 514.813 929.274 514.813ZM935.523 504.653V506.859H934.161V508.116H935.523V513.627C935.523 515.385 936.174 516.07 937.853 516.07C938.213 516.07 938.635 516.044 938.819 516V514.717C938.714 514.734 938.362 514.761 938.187 514.761C937.404 514.761 937.053 514.383 937.053 513.548V508.116H938.828V506.859H937.053V504.653H935.523ZM940.542 516H942.071V506.859H940.542V516ZM941.307 505.233C941.843 505.233 942.265 504.803 942.265 504.275C942.265 503.739 941.843 503.317 941.307 503.317C940.779 503.317 940.349 503.739 940.349 504.275C940.349 504.803 940.779 505.233 941.307 505.233ZM947.925 516.158C950.447 516.158 952.152 514.339 952.152 511.43C952.152 508.512 950.447 506.701 947.925 506.701C945.394 506.701 943.688 508.512 943.688 511.43C943.688 514.339 945.394 516.158 947.925 516.158ZM947.925 514.813C946.308 514.813 945.244 513.583 945.244 511.43C945.244 509.276 946.308 508.046 947.925 508.046C949.542 508.046 950.597 509.276 950.597 511.43C950.597 513.583 949.542 514.813 947.925 514.813ZM953.699 516H955.229V510.621C955.229 509.074 956.169 508.055 957.61 508.055C959.017 508.055 959.711 508.863 959.711 510.34V516H961.24V510.067C961.24 507.993 960.08 506.701 958.076 506.701C956.661 506.701 955.686 507.334 955.176 508.318H955.141V506.859H953.699V516ZM963.033 509.382C963.033 510.7 963.868 511.5 965.591 511.913L967.041 512.265C968.087 512.52 968.447 512.897 968.447 513.557C968.447 514.383 967.683 514.91 966.443 514.91C965.204 514.91 964.501 514.409 964.316 513.363H962.787C962.963 515.077 964.299 516.158 966.443 516.158C968.482 516.158 969.985 515.033 969.985 513.442C969.985 512.133 969.317 511.412 967.472 510.964L966.021 510.612C965.002 510.366 964.536 509.936 964.536 509.303C964.536 508.503 965.274 507.949 966.391 507.949C967.516 507.949 968.219 508.538 968.333 509.496H969.792C969.73 507.879 968.395 506.701 966.391 506.701C964.413 506.701 963.033 507.817 963.033 509.382ZM979.812 516.158C982.149 516.158 983.696 514.304 983.696 511.43C983.696 508.564 982.141 506.701 979.838 506.701C978.546 506.701 977.482 507.343 976.911 508.389H976.876V503.317H975.347V516H976.806V514.453H976.841C977.43 515.508 978.476 516.158 979.812 516.158ZM979.513 508.046C981.13 508.046 982.132 509.355 982.132 511.43C982.132 513.521 981.13 514.813 979.513 514.813C977.966 514.813 976.867 513.469 976.867 511.43C976.867 509.399 977.966 508.046 979.513 508.046ZM988.917 508.028C990.358 508.028 991.316 509.118 991.352 510.647H986.386C986.482 509.127 987.484 508.028 988.917 508.028ZM991.316 513.381C991.062 514.242 990.209 514.831 989.049 514.831C987.405 514.831 986.377 513.68 986.377 511.931V511.843H992.934V511.263C992.934 508.494 991.413 506.701 988.943 506.701C986.421 506.701 984.804 508.626 984.804 511.465C984.804 514.339 986.395 516.158 989.014 516.158C991.009 516.158 992.556 514.98 992.819 513.381H991.316ZM994.973 516H996.502V508.116H998.365V506.859H996.493V505.849C996.493 504.943 996.889 504.504 997.715 504.504C997.97 504.504 998.225 504.53 998.409 504.557V503.317C998.189 503.282 997.82 503.247 997.478 503.247C995.79 503.247 994.973 504.082 994.973 505.84V506.859H993.698V508.116H994.973V516ZM1003.3 516.158C1005.82 516.158 1007.52 514.339 1007.52 511.43C1007.52 508.512 1005.82 506.701 1003.3 506.701C1000.76 506.701 999.06 508.512 999.06 511.43C999.06 514.339 1000.76 516.158 1003.3 516.158ZM1003.3 514.813C1001.68 514.813 1000.62 513.583 1000.62 511.43C1000.62 509.276 1001.68 508.046 1003.3 508.046C1004.91 508.046 1005.97 509.276 1005.97 511.43C1005.97 513.583 1004.91 514.813 1003.3 514.813ZM1009.07 516H1010.6V510.305C1010.6 509.013 1011.37 508.16 1012.56 508.16C1012.93 508.16 1013.25 508.204 1013.38 508.248V506.763C1013.25 506.745 1013.03 506.701 1012.76 506.701C1011.69 506.701 1010.85 507.343 1010.55 508.354H1010.51V506.859H1009.07V516ZM1017.85 508.028C1019.29 508.028 1020.25 509.118 1020.29 510.647H1015.32C1015.42 509.127 1016.42 508.028 1017.85 508.028ZM1020.25 513.381C1020 514.242 1019.14 514.831 1017.98 514.831C1016.34 514.831 1015.31 513.68 1015.31 511.931V511.843H1021.87V511.263C1021.87 508.494 1020.35 506.701 1017.88 506.701C1015.35 506.701 1013.74 508.626 1013.74 511.465C1013.74 514.339 1015.33 516.158 1017.95 516.158C1019.94 516.158 1021.49 514.98 1021.75 513.381H1020.25ZM942.44 530.856C942.247 529.213 940.885 527.701 938.6 527.701C936.077 527.701 934.398 529.547 934.398 532.43C934.398 535.374 936.086 537.158 938.617 537.158C940.691 537.158 942.221 535.875 942.458 534.056H940.955C940.691 535.154 939.874 535.813 938.626 535.813C937.044 535.813 935.954 534.557 935.954 532.43C935.954 530.355 937.026 529.046 938.608 529.046C939.953 529.046 940.727 529.863 940.946 530.856H942.44ZM943.943 537H945.473V531.674C945.473 530.092 946.413 529.055 947.934 529.055C949.366 529.055 950.096 529.925 950.096 531.375V537H951.625V531.094C951.625 529.055 950.412 527.701 948.408 527.701C947.02 527.701 946.018 528.299 945.508 529.318H945.473V524.317H943.943V537ZM957.355 537.158C959.878 537.158 961.583 535.339 961.583 532.43C961.583 529.512 959.878 527.701 957.355 527.701C954.824 527.701 953.119 529.512 953.119 532.43C953.119 535.339 954.824 537.158 957.355 537.158ZM957.355 535.813C955.738 535.813 954.675 534.583 954.675 532.43C954.675 530.276 955.738 529.046 957.355 529.046C958.973 529.046 960.027 530.276 960.027 532.43C960.027 534.583 958.973 535.813 957.355 535.813ZM966.918 537.158C969.44 537.158 971.146 535.339 971.146 532.43C971.146 529.512 969.44 527.701 966.918 527.701C964.387 527.701 962.682 529.512 962.682 532.43C962.682 535.339 964.387 537.158 966.918 537.158ZM966.918 535.813C965.301 535.813 964.237 534.583 964.237 532.43C964.237 530.276 965.301 529.046 966.918 529.046C968.535 529.046 969.59 530.276 969.59 532.43C969.59 534.583 968.535 535.813 966.918 535.813ZM972.534 530.382C972.534 531.7 973.369 532.5 975.092 532.913L976.542 533.265C977.588 533.52 977.948 533.897 977.948 534.557C977.948 535.383 977.184 535.91 975.944 535.91C974.705 535.91 974.002 535.409 973.817 534.363H972.288C972.464 536.077 973.8 537.158 975.944 537.158C977.983 537.158 979.486 536.033 979.486 534.442C979.486 533.133 978.818 532.412 976.973 531.964L975.522 531.612C974.503 531.366 974.037 530.936 974.037 530.303C974.037 529.503 974.775 528.949 975.892 528.949C977.017 528.949 977.72 529.538 977.834 530.496H979.293C979.231 528.879 977.896 527.701 975.892 527.701C973.914 527.701 972.534 528.817 972.534 530.382ZM981.156 537H982.686V527.859H981.156V537ZM981.921 526.233C982.457 526.233 982.879 525.803 982.879 525.275C982.879 524.739 982.457 524.317 981.921 524.317C981.394 524.317 980.963 524.739 980.963 525.275C980.963 525.803 981.394 526.233 981.921 526.233ZM984.751 537H986.28V531.621C986.28 530.074 987.221 529.055 988.662 529.055C990.068 529.055 990.763 529.863 990.763 531.34V537H992.292V531.067C992.292 528.993 991.132 527.701 989.128 527.701C987.713 527.701 986.737 528.334 986.228 529.318H986.192V527.859H984.751V537ZM997.961 535.726C996.388 535.726 995.359 534.442 995.359 532.395C995.359 530.347 996.388 529.046 997.961 529.046C999.552 529.046 1000.62 530.382 1000.62 532.395C1000.62 534.407 999.552 535.726 997.961 535.726ZM998.014 540.445C1000.54 540.445 1002.14 538.995 1002.14 536.815V527.859H1000.69V529.397H1000.66C1000.05 528.334 998.98 527.701 997.688 527.701C995.324 527.701 993.795 529.529 993.795 532.395C993.795 535.233 995.324 537.07 997.653 537.07C998.937 537.07 1000.02 536.42 1000.58 535.427H1000.62V536.868C1000.62 538.23 999.657 539.145 998.075 539.145C996.933 539.145 996.027 538.591 995.729 537.756H994.155C994.41 539.312 996.001 540.445 998.014 540.445Z" fill="black"/>
<rect x="868" y="289" width="201" height="126" fill="#E0E0E0"/>
<path d="M907.926 348H909.587L904.911 335.317H903.347L898.671 348H900.332L901.606 344.37H906.651L907.926 348ZM904.103 337.242H904.155L906.186 343.025H902.072L904.103 337.242ZM910.879 348H912.408V335.317H910.879V348ZM914.474 348H916.003V342.305C916.003 341.013 916.776 340.16 917.963 340.16C918.332 340.16 918.657 340.204 918.78 340.248V338.763C918.657 338.745 918.429 338.701 918.165 338.701C917.093 338.701 916.249 339.343 915.95 340.354H915.915V338.859H914.474V348ZM923.254 340.028C924.695 340.028 925.653 341.118 925.688 342.647H920.723C920.819 341.127 921.821 340.028 923.254 340.028ZM925.653 345.381C925.398 346.242 924.546 346.831 923.386 346.831C921.742 346.831 920.714 345.68 920.714 343.931V343.843H927.271V343.263C927.271 340.494 925.75 338.701 923.28 338.701C920.758 338.701 919.141 340.626 919.141 343.465C919.141 346.339 920.731 348.158 923.351 348.158C925.346 348.158 926.893 346.98 927.156 345.381H925.653ZM931.832 346.857C930.733 346.857 930.004 346.286 930.004 345.416C930.004 344.555 930.707 344.01 931.938 343.931L934.381 343.781V344.528C934.381 345.847 933.273 346.857 931.832 346.857ZM931.489 348.158C932.72 348.158 933.88 347.473 934.425 346.427H934.46V348H935.91V341.681C935.91 339.861 934.557 338.701 932.412 338.701C930.25 338.701 928.896 339.914 928.791 341.496H930.268C930.461 340.6 931.199 340.046 932.377 340.046C933.643 340.046 934.381 340.714 934.381 341.83V342.595L931.762 342.744C929.652 342.867 928.448 343.852 928.448 345.416C928.448 347.06 929.67 348.158 931.489 348.158ZM941.315 348.158C942.634 348.158 943.68 347.508 944.269 346.453H944.295V348H945.754V335.317H944.225V340.345H944.189C943.645 339.343 942.59 338.701 941.28 338.701C938.978 338.701 937.404 340.564 937.404 343.43C937.404 346.295 938.986 348.158 941.315 348.158ZM941.605 340.046C943.179 340.046 944.233 341.391 944.233 343.43C944.233 345.478 943.179 346.813 941.605 346.813C939.988 346.813 938.969 345.504 938.969 343.43C938.969 341.364 939.988 340.046 941.605 340.046ZM948.584 351.419C950.236 351.419 950.992 350.777 951.774 348.642L955.369 338.859H953.761L951.229 346.471H951.203L948.672 338.859H947.037L950.412 348.009L950.201 348.65C949.85 349.714 949.375 350.127 948.522 350.127C948.329 350.127 948.092 350.118 947.925 350.083V351.366C948.092 351.401 948.399 351.419 948.584 351.419ZM960.344 348H961.873V342.674C961.873 341.092 962.813 340.055 964.334 340.055C965.767 340.055 966.496 340.925 966.496 342.375V348H968.025V342.094C968.025 340.055 966.812 338.701 964.809 338.701C963.42 338.701 962.418 339.299 961.908 340.318H961.873V335.317H960.344V348ZM972.982 346.857C971.884 346.857 971.154 346.286 971.154 345.416C971.154 344.555 971.857 344.01 973.088 343.931L975.531 343.781V344.528C975.531 345.847 974.424 346.857 972.982 346.857ZM972.64 348.158C973.87 348.158 975.03 347.473 975.575 346.427H975.61V348H977.061V341.681C977.061 339.861 975.707 338.701 973.562 338.701C971.4 338.701 970.047 339.914 969.941 341.496H971.418C971.611 340.6 972.35 340.046 973.527 340.046C974.793 340.046 975.531 340.714 975.531 341.83V342.595L972.912 342.744C970.803 342.867 969.599 343.852 969.599 345.416C969.599 347.06 970.82 348.158 972.64 348.158ZM978.845 341.382C978.845 342.7 979.68 343.5 981.402 343.913L982.853 344.265C983.898 344.52 984.259 344.897 984.259 345.557C984.259 346.383 983.494 346.91 982.255 346.91C981.016 346.91 980.312 346.409 980.128 345.363H978.599C978.774 347.077 980.11 348.158 982.255 348.158C984.294 348.158 985.797 347.033 985.797 345.442C985.797 344.133 985.129 343.412 983.283 342.964L981.833 342.612C980.813 342.366 980.348 341.936 980.348 341.303C980.348 340.503 981.086 339.949 982.202 339.949C983.327 339.949 984.03 340.538 984.145 341.496H985.604C985.542 339.879 984.206 338.701 982.202 338.701C980.225 338.701 978.845 339.817 978.845 341.382ZM990.921 341.382C990.921 342.7 991.756 343.5 993.479 343.913L994.929 344.265C995.975 344.52 996.335 344.897 996.335 345.557C996.335 346.383 995.57 346.91 994.331 346.91C993.092 346.91 992.389 346.409 992.204 345.363H990.675C990.851 347.077 992.187 348.158 994.331 348.158C996.37 348.158 997.873 347.033 997.873 345.442C997.873 344.133 997.205 343.412 995.359 342.964L993.909 342.612C992.89 342.366 992.424 341.936 992.424 341.303C992.424 340.503 993.162 339.949 994.278 339.949C995.403 339.949 996.106 340.538 996.221 341.496H997.68C997.618 339.879 996.282 338.701 994.278 338.701C992.301 338.701 990.921 339.817 990.921 341.382ZM999.543 348H1001.07V338.859H999.543V348ZM1000.31 337.233C1000.84 337.233 1001.27 336.803 1001.27 336.275C1001.27 335.739 1000.84 335.317 1000.31 335.317C999.78 335.317 999.35 335.739 999.35 336.275C999.35 336.803 999.78 337.233 1000.31 337.233ZM1003.14 348H1004.67V342.27C1004.67 341.004 1005.55 340.055 1006.76 340.055C1007.89 340.055 1008.63 340.775 1008.63 341.874V348H1010.16V342.19C1010.16 340.951 1011.01 340.055 1012.23 340.055C1013.43 340.055 1014.12 340.793 1014.12 342.041V348H1015.65V341.689C1015.65 339.879 1014.48 338.701 1012.67 338.701C1011.39 338.701 1010.32 339.352 1009.81 340.441H1009.77C1009.38 339.334 1008.46 338.701 1007.21 338.701C1005.98 338.701 1005.04 339.352 1004.61 340.318H1004.58V338.859H1003.14V348ZM1017.68 348H1019.21V338.859H1017.68V348ZM1018.45 337.233C1018.98 337.233 1019.41 336.803 1019.41 336.275C1019.41 335.739 1018.98 335.317 1018.45 335.317C1017.92 335.317 1017.49 335.739 1017.49 336.275C1017.49 336.803 1017.92 337.233 1018.45 337.233ZM1021.36 348H1022.89V335.317H1021.36V348ZM1027.97 346.857C1026.87 346.857 1026.14 346.286 1026.14 345.416C1026.14 344.555 1026.84 344.01 1028.07 343.931L1030.52 343.781V344.528C1030.52 345.847 1029.41 346.857 1027.97 346.857ZM1027.62 348.158C1028.85 348.158 1030.01 347.473 1030.56 346.427H1030.59V348H1032.04V341.681C1032.04 339.861 1030.69 338.701 1028.55 338.701C1026.38 338.701 1025.03 339.914 1024.93 341.496H1026.4C1026.6 340.6 1027.33 340.046 1028.51 340.046C1029.78 340.046 1030.52 340.714 1030.52 341.83V342.595L1027.9 342.744C1025.79 342.867 1024.58 343.852 1024.58 345.416C1024.58 347.06 1025.8 348.158 1027.62 348.158ZM1033.99 348H1035.52V342.305C1035.52 341.013 1036.29 340.16 1037.48 340.16C1037.85 340.16 1038.17 340.204 1038.29 340.248V338.763C1038.17 338.745 1037.94 338.701 1037.68 338.701C1036.61 338.701 1035.76 339.343 1035.46 340.354H1035.43V338.859H1033.99V348ZM940.498 360.701C939.171 360.701 938.107 361.378 937.545 362.406H937.51V360.859H936.06V373.05H937.589V368.515H937.624C938.169 369.517 939.224 370.158 940.533 370.158C942.836 370.158 944.409 368.295 944.409 365.43C944.409 362.564 942.827 360.701 940.498 360.701ZM940.199 368.813C938.635 368.813 937.58 367.469 937.58 365.43C937.58 363.399 938.635 362.046 940.199 362.046C941.825 362.046 942.845 363.364 942.845 365.43C942.845 367.504 941.825 368.813 940.199 368.813ZM945.956 370H947.485V364.305C947.485 363.013 948.259 362.16 949.445 362.16C949.814 362.16 950.14 362.204 950.263 362.248V360.763C950.14 360.745 949.911 360.701 949.647 360.701C948.575 360.701 947.731 361.343 947.433 362.354H947.397V360.859H945.956V370ZM954.859 370.158C957.382 370.158 959.087 368.339 959.087 365.43C959.087 362.512 957.382 360.701 954.859 360.701C952.328 360.701 950.623 362.512 950.623 365.43C950.623 368.339 952.328 370.158 954.859 370.158ZM954.859 368.813C953.242 368.813 952.179 367.583 952.179 365.43C952.179 363.276 953.242 362.046 954.859 362.046C956.477 362.046 957.531 363.276 957.531 365.43C957.531 367.583 956.477 368.813 954.859 368.813ZM964.097 370.158C965.415 370.158 966.461 369.508 967.05 368.453H967.076V370H968.535V357.317H967.006V362.345H966.971C966.426 361.343 965.371 360.701 964.062 360.701C961.759 360.701 960.186 362.564 960.186 365.43C960.186 368.295 961.768 370.158 964.097 370.158ZM964.387 362.046C965.96 362.046 967.015 363.391 967.015 365.43C967.015 367.478 965.96 368.813 964.387 368.813C962.77 368.813 961.75 367.504 961.75 365.43C961.75 363.364 962.77 362.046 964.387 362.046ZM978.106 360.859H976.577V366.229C976.577 367.785 975.681 368.805 974.195 368.805C972.78 368.805 972.086 368.005 972.086 366.52V360.859H970.557V366.792C970.557 368.866 971.726 370.158 973.721 370.158C975.127 370.158 976.076 369.569 976.621 368.515H976.656V370H978.106V360.859ZM987.687 363.856C987.493 362.213 986.131 360.701 983.846 360.701C981.323 360.701 979.645 362.547 979.645 365.43C979.645 368.374 981.332 370.158 983.863 370.158C985.938 370.158 987.467 368.875 987.704 367.056H986.201C985.938 368.154 985.12 368.813 983.872 368.813C982.29 368.813 981.2 367.557 981.2 365.43C981.2 363.355 982.272 362.046 983.854 362.046C985.199 362.046 985.973 362.863 986.192 363.856H987.687ZM989.603 358.653V360.859H988.24V362.116H989.603V367.627C989.603 369.385 990.253 370.07 991.932 370.07C992.292 370.07 992.714 370.044 992.898 370V368.717C992.793 368.734 992.441 368.761 992.266 368.761C991.483 368.761 991.132 368.383 991.132 367.548V362.116H992.907V360.859H991.132V358.653H989.603ZM994.384 363.382C994.384 364.7 995.219 365.5 996.941 365.913L998.392 366.265C999.438 366.52 999.798 366.897 999.798 367.557C999.798 368.383 999.033 368.91 997.794 368.91C996.555 368.91 995.852 368.409 995.667 367.363H994.138C994.313 369.077 995.649 370.158 997.794 370.158C999.833 370.158 1001.34 369.033 1001.34 367.442C1001.34 366.133 1000.67 365.412 998.822 364.964L997.372 364.612C996.353 364.366 995.887 363.936 995.887 363.303C995.887 362.503 996.625 361.949 997.741 361.949C998.866 361.949 999.569 362.538 999.684 363.496H1001.14C1001.08 361.879 999.745 360.701 997.741 360.701C995.764 360.701 994.384 361.817 994.384 363.382Z" fill="black"/>
<rect x="868" y="132" width="201" height="126" fill="#E0E0E0"/>
<path d="M911.213 167.317V180H915.476C919.246 180 921.461 177.653 921.461 173.654C921.461 169.664 919.237 167.317 915.476 167.317H911.213ZM912.795 168.741H915.37C918.253 168.741 919.844 170.499 919.844 173.672C919.844 176.818 918.244 178.576 915.37 178.576H912.795V168.741ZM926.98 180.158C929.503 180.158 931.208 178.339 931.208 175.43C931.208 172.512 929.503 170.701 926.98 170.701C924.449 170.701 922.744 172.512 922.744 175.43C922.744 178.339 924.449 180.158 926.98 180.158ZM926.98 178.813C925.363 178.813 924.3 177.583 924.3 175.43C924.3 173.276 925.363 172.046 926.98 172.046C928.598 172.046 929.652 173.276 929.652 175.43C929.652 177.583 928.598 178.813 926.98 178.813ZM936.42 172.028C937.861 172.028 938.819 173.118 938.854 174.647H933.889C933.985 173.127 934.987 172.028 936.42 172.028ZM938.819 177.381C938.564 178.242 937.712 178.831 936.552 178.831C934.908 178.831 933.88 177.68 933.88 175.931V175.843H940.437V175.263C940.437 172.494 938.916 170.701 936.446 170.701C933.924 170.701 932.307 172.626 932.307 175.465C932.307 178.339 933.897 180.158 936.517 180.158C938.512 180.158 940.059 178.98 940.322 177.381H938.819ZM941.825 173.382C941.825 174.7 942.66 175.5 944.383 175.913L945.833 176.265C946.879 176.52 947.239 176.897 947.239 177.557C947.239 178.383 946.475 178.91 945.235 178.91C943.996 178.91 943.293 178.409 943.108 177.363H941.579C941.755 179.077 943.091 180.158 945.235 180.158C947.274 180.158 948.777 179.033 948.777 177.442C948.777 176.133 948.109 175.412 946.264 174.964L944.813 174.612C943.794 174.366 943.328 173.936 943.328 173.303C943.328 172.503 944.066 171.949 945.183 171.949C946.308 171.949 947.011 172.538 947.125 173.496H948.584C948.522 171.879 947.187 170.701 945.183 170.701C943.205 170.701 941.825 171.817 941.825 173.382ZM950.368 180H951.897V174.621C951.897 173.074 952.838 172.055 954.279 172.055C955.686 172.055 956.38 172.863 956.38 174.34V180H957.909V174.067C957.909 171.993 956.749 170.701 954.745 170.701C953.33 170.701 952.354 171.334 951.845 172.318H951.81V170.859H950.368V180ZM960.476 171.791L961.68 167.317H960.054L959.201 171.791H960.476ZM964.29 168.653V170.859H962.928V172.116H964.29V177.627C964.29 179.385 964.94 180.07 966.619 180.07C966.979 180.07 967.401 180.044 967.586 180V178.717C967.48 178.734 967.129 178.761 966.953 178.761C966.171 178.761 965.819 178.383 965.819 177.548V172.116H967.595V170.859H965.819V168.653H964.29ZM984.549 170.859H983.037L981.209 178.295H981.174L979.1 170.859H977.623L975.558 178.295H975.522L973.694 170.859H972.174L974.731 180H976.287L978.344 172.925H978.379L980.444 180H982L984.549 170.859ZM988.645 178.857C987.546 178.857 986.816 178.286 986.816 177.416C986.816 176.555 987.52 176.01 988.75 175.931L991.193 175.781V176.528C991.193 177.847 990.086 178.857 988.645 178.857ZM988.302 180.158C989.532 180.158 990.692 179.473 991.237 178.427H991.272V180H992.723V173.681C992.723 171.861 991.369 170.701 989.225 170.701C987.062 170.701 985.709 171.914 985.604 173.496H987.08C987.273 172.6 988.012 172.046 989.189 172.046C990.455 172.046 991.193 172.714 991.193 173.83V174.595L988.574 174.744C986.465 174.867 985.261 175.852 985.261 177.416C985.261 179.06 986.482 180.158 988.302 180.158ZM994.665 180H996.194V174.621C996.194 173.074 997.135 172.055 998.576 172.055C999.982 172.055 1000.68 172.863 1000.68 174.34V180H1002.21V174.067C1002.21 171.993 1001.05 170.701 999.042 170.701C997.627 170.701 996.651 171.334 996.142 172.318H996.106V170.859H994.665V180ZM1004.65 168.653V170.859H1003.29V172.116H1004.65V177.627C1004.65 179.385 1005.3 180.07 1006.98 180.07C1007.34 180.07 1007.76 180.044 1007.95 180V178.717C1007.84 178.734 1007.49 178.761 1007.31 178.761C1006.53 178.761 1006.18 178.383 1006.18 177.548V172.116H1007.95V170.859H1006.18V168.653H1004.65ZM1013.77 168.653V170.859H1012.41V172.116H1013.77V177.627C1013.77 179.385 1014.42 180.07 1016.1 180.07C1016.46 180.07 1016.88 180.044 1017.07 180V178.717C1016.96 178.734 1016.61 178.761 1016.44 178.761C1015.65 178.761 1015.3 178.383 1015.3 177.548V172.116H1017.08V170.859H1015.3V168.653H1013.77ZM1022.24 180.158C1024.76 180.158 1026.46 178.339 1026.46 175.43C1026.46 172.512 1024.76 170.701 1022.24 170.701C1019.71 170.701 1018 172.512 1018 175.43C1018 178.339 1019.71 180.158 1022.24 180.158ZM1022.24 178.813C1020.62 178.813 1019.56 177.583 1019.56 175.43C1019.56 173.276 1020.62 172.046 1022.24 172.046C1023.85 172.046 1024.91 173.276 1024.91 175.43C1024.91 177.583 1023.85 178.813 1022.24 178.813ZM899.277 195.382C899.277 196.7 900.112 197.5 901.835 197.913L903.285 198.265C904.331 198.52 904.691 198.897 904.691 199.557C904.691 200.383 903.927 200.91 902.688 200.91C901.448 200.91 900.745 200.409 900.561 199.363H899.031C899.207 201.077 900.543 202.158 902.688 202.158C904.727 202.158 906.229 201.033 906.229 199.442C906.229 198.133 905.562 197.412 903.716 196.964L902.266 196.612C901.246 196.366 900.78 195.936 900.78 195.303C900.78 194.503 901.519 193.949 902.635 193.949C903.76 193.949 904.463 194.538 904.577 195.496H906.036C905.975 193.879 904.639 192.701 902.635 192.701C900.657 192.701 899.277 193.817 899.277 195.382ZM912.259 192.701C910.932 192.701 909.868 193.378 909.306 194.406H909.271V192.859H907.82V205.05H909.35V200.515H909.385C909.93 201.517 910.984 202.158 912.294 202.158C914.597 202.158 916.17 200.295 916.17 197.43C916.17 194.564 914.588 192.701 912.259 192.701ZM911.96 200.813C910.396 200.813 909.341 199.469 909.341 197.43C909.341 195.399 910.396 194.046 911.96 194.046C913.586 194.046 914.605 195.364 914.605 197.43C914.605 199.504 913.586 200.813 911.96 200.813ZM921.382 194.028C922.823 194.028 923.781 195.118 923.816 196.647H918.851C918.947 195.127 919.949 194.028 921.382 194.028ZM923.781 199.381C923.526 200.242 922.674 200.831 921.514 200.831C919.87 200.831 918.842 199.68 918.842 197.931V197.843H925.398V197.263C925.398 194.494 923.878 192.701 921.408 192.701C918.886 192.701 917.269 194.626 917.269 197.465C917.269 200.339 918.859 202.158 921.479 202.158C923.474 202.158 925.021 200.98 925.284 199.381H923.781ZM926.945 202H928.475V196.621C928.475 195.074 929.415 194.055 930.856 194.055C932.263 194.055 932.957 194.863 932.957 196.34V202H934.486V196.067C934.486 193.993 933.326 192.701 931.322 192.701C929.907 192.701 928.932 193.334 928.422 194.318H928.387V192.859H926.945V202ZM939.9 202.158C941.219 202.158 942.265 201.508 942.854 200.453H942.88V202H944.339V189.317H942.81V194.345H942.774C942.229 193.343 941.175 192.701 939.865 192.701C937.562 192.701 935.989 194.564 935.989 197.43C935.989 200.295 937.571 202.158 939.9 202.158ZM940.19 194.046C941.764 194.046 942.818 195.391 942.818 197.43C942.818 199.478 941.764 200.813 940.19 200.813C938.573 200.813 937.554 199.504 937.554 197.43C937.554 195.364 938.573 194.046 940.19 194.046ZM950.096 202H951.625V196.27C951.625 195.004 952.504 194.055 953.717 194.055C954.851 194.055 955.589 194.775 955.589 195.874V202H957.118V196.19C957.118 194.951 957.971 194.055 959.184 194.055C960.388 194.055 961.082 194.793 961.082 196.041V202H962.611V195.689C962.611 193.879 961.442 192.701 959.632 192.701C958.349 192.701 957.276 193.352 956.767 194.441H956.731C956.336 193.334 955.413 192.701 954.165 192.701C952.935 192.701 952.003 193.352 951.572 194.318H951.537V192.859H950.096V202ZM968.351 202.158C970.873 202.158 972.578 200.339 972.578 197.43C972.578 194.512 970.873 192.701 968.351 192.701C965.819 192.701 964.114 194.512 964.114 197.43C964.114 200.339 965.819 202.158 968.351 202.158ZM968.351 200.813C966.733 200.813 965.67 199.583 965.67 197.43C965.67 195.276 966.733 194.046 968.351 194.046C969.968 194.046 971.022 195.276 971.022 197.43C971.022 199.583 969.968 200.813 968.351 200.813ZM974.125 202H975.654V196.621C975.654 195.074 976.595 194.055 978.036 194.055C979.442 194.055 980.137 194.863 980.137 196.34V202H981.666V196.067C981.666 193.993 980.506 192.701 978.502 192.701C977.087 192.701 976.111 193.334 975.602 194.318H975.566V192.859H974.125V202ZM987.282 194.028C988.724 194.028 989.682 195.118 989.717 196.647H984.751C984.848 195.127 985.85 194.028 987.282 194.028ZM989.682 199.381C989.427 200.242 988.574 200.831 987.414 200.831C985.771 200.831 984.742 199.68 984.742 197.931V197.843H991.299V197.263C991.299 194.494 989.778 192.701 987.309 192.701C984.786 192.701 983.169 194.626 983.169 197.465C983.169 200.339 984.76 202.158 987.379 202.158C989.374 202.158 990.921 200.98 991.185 199.381H989.682ZM993.61 205.419C995.263 205.419 996.019 204.777 996.801 202.642L1000.4 192.859H998.787L996.256 200.471H996.229L993.698 192.859H992.063L995.438 202.009L995.228 202.65C994.876 203.714 994.401 204.127 993.549 204.127C993.355 204.127 993.118 204.118 992.951 204.083V205.366C993.118 205.401 993.426 205.419 993.61 205.419ZM1005.29 202H1006.82V196.305C1006.82 195.013 1007.59 194.16 1008.78 194.16C1009.15 194.16 1009.47 194.204 1009.6 194.248V192.763C1009.47 192.745 1009.25 192.701 1008.98 192.701C1007.91 192.701 1007.07 193.343 1006.77 194.354H1006.73V192.859H1005.29V202ZM1010.92 202H1012.45V192.859H1010.92V202ZM1011.69 191.233C1012.23 191.233 1012.65 190.803 1012.65 190.275C1012.65 189.739 1012.23 189.317 1011.69 189.317C1011.16 189.317 1010.73 189.739 1010.73 190.275C1010.73 190.803 1011.16 191.233 1011.69 191.233ZM1018.24 200.726C1016.66 200.726 1015.64 199.442 1015.64 197.395C1015.64 195.347 1016.66 194.046 1018.24 194.046C1019.83 194.046 1020.89 195.382 1020.89 197.395C1020.89 199.407 1019.83 200.726 1018.24 200.726ZM1018.29 205.445C1020.81 205.445 1022.42 203.995 1022.42 201.815V192.859H1020.96V194.397H1020.94C1020.33 193.334 1019.26 192.701 1017.96 192.701C1015.6 192.701 1014.07 194.529 1014.07 197.395C1014.07 200.233 1015.6 202.07 1017.93 202.07C1019.21 202.07 1020.29 201.42 1020.86 200.427H1020.89V201.868C1020.89 203.23 1019.93 204.145 1018.35 204.145C1017.21 204.145 1016.3 203.591 1016 202.756H1014.43C1014.69 204.312 1016.28 205.445 1018.29 205.445ZM1024.5 202H1026.02V196.674C1026.02 195.092 1026.96 194.055 1028.49 194.055C1029.92 194.055 1030.65 194.925 1030.65 196.375V202H1032.18V196.094C1032.18 194.055 1030.96 192.701 1028.96 192.701C1027.57 192.701 1026.57 193.299 1026.06 194.318H1026.02V189.317H1024.5V202ZM1034.61 190.653V192.859H1033.25V194.116H1034.61V199.627C1034.61 201.385 1035.26 202.07 1036.94 202.07C1037.3 202.07 1037.72 202.044 1037.91 202V200.717C1037.8 200.734 1037.45 200.761 1037.27 200.761C1036.49 200.761 1036.14 200.383 1036.14 199.548V194.116H1037.92V192.859H1036.14V190.653H1034.61ZM953.523 223H955.053V217.621C955.053 216.074 955.993 215.055 957.435 215.055C958.841 215.055 959.535 215.863 959.535 217.34V223H961.064V217.067C961.064 214.993 959.904 213.701 957.9 213.701C956.485 213.701 955.51 214.334 955 215.318H954.965V213.859H953.523V223ZM966.804 223.158C969.326 223.158 971.031 221.339 971.031 218.43C971.031 215.512 969.326 213.701 966.804 213.701C964.272 213.701 962.567 215.512 962.567 218.43C962.567 221.339 964.272 223.158 966.804 223.158ZM966.804 221.813C965.187 221.813 964.123 220.583 964.123 218.43C964.123 216.276 965.187 215.046 966.804 215.046C968.421 215.046 969.476 216.276 969.476 218.43C969.476 220.583 968.421 221.813 966.804 221.813ZM984.206 213.859H982.694L980.866 221.295H980.831L978.757 213.859H977.28L975.215 221.295H975.18L973.352 213.859H971.831L974.389 223H975.944L978.001 215.925H978.036L980.102 223H981.657L984.206 213.859Z" fill="black"/>
<rect x="868" y="651" width="201" height="126" fill="#E0E0E0"/>
<path d="M890.611 708.317V721H894.874C898.645 721 900.859 718.653 900.859 714.654C900.859 710.664 898.636 708.317 894.874 708.317H890.611ZM892.193 709.741H894.769C897.651 709.741 899.242 711.499 899.242 714.672C899.242 717.818 897.643 719.576 894.769 719.576H892.193V709.741ZM906.379 721.158C908.901 721.158 910.606 719.339 910.606 716.43C910.606 713.512 908.901 711.701 906.379 711.701C903.848 711.701 902.143 713.512 902.143 716.43C902.143 719.339 903.848 721.158 906.379 721.158ZM906.379 719.813C904.762 719.813 903.698 718.583 903.698 716.43C903.698 714.276 904.762 713.046 906.379 713.046C907.996 713.046 909.051 714.276 909.051 716.43C909.051 718.583 907.996 719.813 906.379 719.813ZM915.818 713.028C917.26 713.028 918.218 714.118 918.253 715.647H913.287C913.384 714.127 914.386 713.028 915.818 713.028ZM918.218 718.381C917.963 719.242 917.11 719.831 915.95 719.831C914.307 719.831 913.278 718.68 913.278 716.931V716.843H919.835V716.263C919.835 713.494 918.314 711.701 915.845 711.701C913.322 711.701 911.705 713.626 911.705 716.465C911.705 719.339 913.296 721.158 915.915 721.158C917.91 721.158 919.457 719.98 919.721 718.381H918.218ZM921.224 714.382C921.224 715.7 922.059 716.5 923.781 716.913L925.231 717.265C926.277 717.52 926.638 717.897 926.638 718.557C926.638 719.383 925.873 719.91 924.634 719.91C923.395 719.91 922.691 719.409 922.507 718.363H920.978C921.153 720.077 922.489 721.158 924.634 721.158C926.673 721.158 928.176 720.033 928.176 718.442C928.176 717.133 927.508 716.412 925.662 715.964L924.212 715.612C923.192 715.366 922.727 714.936 922.727 714.303C922.727 713.503 923.465 712.949 924.581 712.949C925.706 712.949 926.409 713.538 926.523 714.496H927.982C927.921 712.879 926.585 711.701 924.581 711.701C922.604 711.701 921.224 712.817 921.224 714.382ZM929.767 721H931.296V715.621C931.296 714.074 932.236 713.055 933.678 713.055C935.084 713.055 935.778 713.863 935.778 715.34V721H937.308V715.067C937.308 712.993 936.147 711.701 934.144 711.701C932.729 711.701 931.753 712.334 931.243 713.318H931.208V711.859H929.767V721ZM939.874 712.791L941.078 708.317H939.452L938.6 712.791H939.874ZM943.688 709.653V711.859H942.326V713.116H943.688V718.627C943.688 720.385 944.339 721.07 946.018 721.07C946.378 721.07 946.8 721.044 946.984 721V719.717C946.879 719.734 946.527 719.761 946.352 719.761C945.569 719.761 945.218 719.383 945.218 718.548V713.116H946.993V711.859H945.218V709.653H943.688ZM959.913 714.856C959.72 713.213 958.357 711.701 956.072 711.701C953.55 711.701 951.871 713.547 951.871 716.43C951.871 719.374 953.559 721.158 956.09 721.158C958.164 721.158 959.693 719.875 959.931 718.056H958.428C958.164 719.154 957.347 719.813 956.099 719.813C954.517 719.813 953.427 718.557 953.427 716.43C953.427 714.355 954.499 713.046 956.081 713.046C957.426 713.046 958.199 713.863 958.419 714.856H959.913ZM961.416 721H962.945V708.317H961.416V721ZM965.09 721H966.619V711.859H965.09V721ZM965.854 710.233C966.391 710.233 966.812 709.803 966.812 709.275C966.812 708.739 966.391 708.317 965.854 708.317C965.327 708.317 964.896 708.739 964.896 709.275C964.896 709.803 965.327 710.233 965.854 710.233ZM976.278 714.856C976.085 713.213 974.723 711.701 972.438 711.701C969.915 711.701 968.236 713.547 968.236 716.43C968.236 719.374 969.924 721.158 972.455 721.158C974.529 721.158 976.059 719.875 976.296 718.056H974.793C974.529 719.154 973.712 719.813 972.464 719.813C970.882 719.813 969.792 718.557 969.792 716.43C969.792 714.355 970.864 713.046 972.446 713.046C973.791 713.046 974.564 713.863 974.784 714.856H976.278ZM979.311 715.92V708.317H977.781V721H979.311V717.555L980.163 716.746L983.556 721H985.331L981.244 715.806L985.208 711.859H983.354L979.311 715.92ZM994.568 711.701C993.241 711.701 992.178 712.378 991.615 713.406H991.58V711.859H990.13V724.05H991.659V719.515H991.694C992.239 720.517 993.294 721.158 994.604 721.158C996.906 721.158 998.479 719.295 998.479 716.43C998.479 713.564 996.897 711.701 994.568 711.701ZM994.27 719.813C992.705 719.813 991.65 718.469 991.65 716.43C991.65 714.399 992.705 713.046 994.27 713.046C995.896 713.046 996.915 714.364 996.915 716.43C996.915 718.504 995.896 719.813 994.27 719.813ZM1000.03 721H1001.56V715.305C1001.56 714.013 1002.33 713.16 1003.52 713.16C1003.88 713.16 1004.21 713.204 1004.33 713.248V711.763C1004.21 711.745 1003.98 711.701 1003.72 711.701C1002.65 711.701 1001.8 712.343 1001.5 713.354H1001.47V711.859H1000.03V721ZM1008.93 721.158C1011.45 721.158 1013.16 719.339 1013.16 716.43C1013.16 713.512 1011.45 711.701 1008.93 711.701C1006.4 711.701 1004.69 713.512 1004.69 716.43C1004.69 719.339 1006.4 721.158 1008.93 721.158ZM1008.93 719.813C1007.31 719.813 1006.25 718.583 1006.25 716.43C1006.25 714.276 1007.31 713.046 1008.93 713.046C1010.55 713.046 1011.6 714.276 1011.6 716.43C1011.6 718.583 1010.55 719.813 1008.93 719.813ZM1018.17 721.158C1019.49 721.158 1020.53 720.508 1021.12 719.453H1021.15V721H1022.61V708.317H1021.08V713.345H1021.04C1020.5 712.343 1019.44 711.701 1018.13 711.701C1015.83 711.701 1014.26 713.564 1014.26 716.43C1014.26 719.295 1015.84 721.158 1018.17 721.158ZM1018.46 713.046C1020.03 713.046 1021.08 714.391 1021.08 716.43C1021.08 718.478 1020.03 719.813 1018.46 719.813C1016.84 719.813 1015.82 718.504 1015.82 716.43C1015.82 714.364 1016.84 713.046 1018.46 713.046ZM1032.18 711.859H1030.65V717.229C1030.65 718.785 1029.75 719.805 1028.27 719.805C1026.85 719.805 1026.16 719.005 1026.16 717.52V711.859H1024.63V717.792C1024.63 719.866 1025.8 721.158 1027.79 721.158C1029.2 721.158 1030.15 720.569 1030.69 719.515H1030.73V721H1032.18V711.859ZM1041.76 714.856C1041.56 713.213 1040.2 711.701 1037.92 711.701C1035.39 711.701 1033.71 713.547 1033.71 716.43C1033.71 719.374 1035.4 721.158 1037.93 721.158C1040.01 721.158 1041.54 719.875 1041.77 718.056H1040.27C1040.01 719.154 1039.19 719.813 1037.94 719.813C1036.36 719.813 1035.27 718.557 1035.27 716.43C1035.27 714.355 1036.34 713.046 1037.92 713.046C1039.27 713.046 1040.04 713.863 1040.26 714.856H1041.76ZM1043.67 709.653V711.859H1042.31V713.116H1043.67V718.627C1043.67 720.385 1044.32 721.07 1046 721.07C1046.36 721.07 1046.78 721.044 1046.97 721V719.717C1046.86 719.734 1046.51 719.761 1046.34 719.761C1045.55 719.761 1045.2 719.383 1045.2 718.548V713.116H1046.98V711.859H1045.2V709.653H1043.67Z" fill="black"/>
<rect x="641" width="201" height="126" fill="#E0E0E0"/>
<path d="M694.118 70.2109C696.922 70.2109 698.803 68.8135 699.383 66.3086H697.783C697.326 67.8555 695.99 68.752 694.127 68.752C691.622 68.752 690.031 66.7656 690.031 63.6543C690.031 60.5693 691.64 58.5654 694.118 58.5654C695.929 58.5654 697.379 59.6553 697.783 61.3164H699.383C698.979 58.7852 696.878 57.1064 694.118 57.1064C690.646 57.1064 688.405 59.6729 688.405 63.6543C688.405 67.6709 690.62 70.2109 694.118 70.2109ZM701.097 70H702.626V57.3174H701.097V70ZM704.771 70H706.3V60.8594H704.771V70ZM705.535 59.2334C706.071 59.2334 706.493 58.8027 706.493 58.2754C706.493 57.7393 706.071 57.3174 705.535 57.3174C705.008 57.3174 704.577 57.7393 704.577 58.2754C704.577 58.8027 705.008 59.2334 705.535 59.2334ZM715.959 63.8564C715.766 62.2129 714.403 60.7012 712.118 60.7012C709.596 60.7012 707.917 62.5469 707.917 65.4297C707.917 68.374 709.604 70.1582 712.136 70.1582C714.21 70.1582 715.739 68.875 715.977 67.0557H714.474C714.21 68.1543 713.393 68.8135 712.145 68.8135C710.562 68.8135 709.473 67.5566 709.473 65.4297C709.473 63.3555 710.545 62.0459 712.127 62.0459C713.472 62.0459 714.245 62.8633 714.465 63.8564H715.959ZM718.991 64.9199V57.3174H717.462V70H718.991V66.5547L719.844 65.7461L723.236 70H725.012L720.925 64.8057L724.889 60.8594H723.034L718.991 64.9199ZM725.609 63.3818C725.609 64.7002 726.444 65.5 728.167 65.9131L729.617 66.2646C730.663 66.5195 731.023 66.8975 731.023 67.5566C731.023 68.3828 730.259 68.9102 729.02 68.9102C727.78 68.9102 727.077 68.4092 726.893 67.3633H725.363C725.539 69.0771 726.875 70.1582 729.02 70.1582C731.059 70.1582 732.562 69.0332 732.562 67.4424C732.562 66.1328 731.894 65.4121 730.048 64.9639L728.598 64.6123C727.578 64.3662 727.112 63.9355 727.112 63.3027C727.112 62.5029 727.851 61.9492 728.967 61.9492C730.092 61.9492 730.795 62.5381 730.909 63.4961H732.368C732.307 61.8789 730.971 60.7012 728.967 60.7012C726.989 60.7012 725.609 61.8174 725.609 63.3818ZM742.282 60.7012C740.955 60.7012 739.892 61.3779 739.329 62.4062H739.294V60.8594H737.844V73.0498H739.373V68.5146H739.408C739.953 69.5166 741.008 70.1582 742.317 70.1582C744.62 70.1582 746.193 68.2949 746.193 65.4297C746.193 62.5645 744.611 60.7012 742.282 60.7012ZM741.983 68.8135C740.419 68.8135 739.364 67.4688 739.364 65.4297C739.364 63.3994 740.419 62.0459 741.983 62.0459C743.609 62.0459 744.629 63.3643 744.629 65.4297C744.629 67.5039 743.609 68.8135 741.983 68.8135ZM747.74 70H749.27V64.3047C749.27 63.0127 750.043 62.1602 751.229 62.1602C751.599 62.1602 751.924 62.2041 752.047 62.248V60.7627C751.924 60.7451 751.695 60.7012 751.432 60.7012C750.359 60.7012 749.516 61.3428 749.217 62.3535H749.182V60.8594H747.74V70ZM756.644 70.1582C759.166 70.1582 760.871 68.3389 760.871 65.4297C760.871 62.5117 759.166 60.7012 756.644 60.7012C754.112 60.7012 752.407 62.5117 752.407 65.4297C752.407 68.3389 754.112 70.1582 756.644 70.1582ZM756.644 68.8135C755.026 68.8135 753.963 67.583 753.963 65.4297C753.963 63.2764 755.026 62.0459 756.644 62.0459C758.261 62.0459 759.315 63.2764 759.315 65.4297C759.315 67.583 758.261 68.8135 756.644 68.8135ZM765.881 70.1582C767.199 70.1582 768.245 69.5078 768.834 68.4531H768.86V70H770.319V57.3174H768.79V62.3447H768.755C768.21 61.3428 767.155 60.7012 765.846 60.7012C763.543 60.7012 761.97 62.5645 761.97 65.4297C761.97 68.2949 763.552 70.1582 765.881 70.1582ZM766.171 62.0459C767.744 62.0459 768.799 63.3906 768.799 65.4297C768.799 67.4775 767.744 68.8135 766.171 68.8135C764.554 68.8135 763.534 67.5039 763.534 65.4297C763.534 63.3643 764.554 62.0459 766.171 62.0459ZM779.891 60.8594H778.361V66.2295C778.361 67.7852 777.465 68.8047 775.979 68.8047C774.564 68.8047 773.87 68.0049 773.87 66.5195V60.8594H772.341V66.792C772.341 68.8662 773.51 70.1582 775.505 70.1582C776.911 70.1582 777.86 69.5693 778.405 68.5146H778.44V70H779.891V60.8594ZM789.471 63.8564C789.277 62.2129 787.915 60.7012 785.63 60.7012C783.107 60.7012 781.429 62.5469 781.429 65.4297C781.429 68.374 783.116 70.1582 785.647 70.1582C787.722 70.1582 789.251 68.875 789.488 67.0557H787.985C787.722 68.1543 786.904 68.8135 785.656 68.8135C784.074 68.8135 782.984 67.5566 782.984 65.4297C782.984 63.3555 784.057 62.0459 785.639 62.0459C786.983 62.0459 787.757 62.8633 787.977 63.8564H789.471ZM791.387 58.6533V60.8594H790.024V62.1162H791.387V67.627C791.387 69.3848 792.037 70.0703 793.716 70.0703C794.076 70.0703 794.498 70.0439 794.683 70V68.7168C794.577 68.7344 794.226 68.7607 794.05 68.7607C793.268 68.7607 792.916 68.3828 792.916 67.5479V62.1162H794.691V60.8594H792.916V58.6533H791.387Z" fill="black"/>
<path d="M821.512 652.933C822.58 652.651 823.216 651.556 822.933 650.488L818.327 633.088C818.045 632.02 816.95 631.383 815.882 631.666C814.814 631.949 814.178 633.043 814.461 634.111L818.555 649.578L803.088 653.673C802.02 653.955 801.383 655.05 801.666 656.118C801.949 657.186 803.043 657.822 804.111 657.539L821.512 652.933ZM733.995 602.729L819.995 652.729L822.005 649.271L736.005 599.271L733.995 602.729Z" fill="#888888"/>
<path d="M1101.59 719.586C1100.8 720.367 1100.8 721.633 1101.59 722.414L1114.31 735.142C1115.09 735.923 1116.36 735.923 1117.14 735.142C1117.92 734.361 1117.92 733.095 1117.14 732.314L1105.83 721L1117.14 709.686C1117.92 708.905 1117.92 707.639 1117.14 706.858C1116.36 706.077 1115.09 706.077 1114.31 706.858L1101.59 719.586ZM1219 719L1103 719L1103 723L1219 723L1219 719Z" fill="#888888"/>
<path d="M683.999 174.046C684.025 172.942 683.15 172.026 682.046 172.001L664.051 171.588C662.946 171.563 662.031 172.438 662.005 173.542C661.98 174.646 662.855 175.562 663.959 175.587L679.955 175.954L679.588 191.949C679.563 193.054 680.438 193.969 681.542 193.995C682.646 194.02 683.562 193.145 683.587 192.041L683.999 174.046ZM616.381 239.446L683.381 175.446L680.619 172.554L613.619 236.554L616.381 239.446Z" fill="#888888"/>
<path d="M459.722 388.45C459.97 387.374 459.299 386.3 458.223 386.051L440.684 382.002C439.608 381.754 438.534 382.425 438.286 383.501C438.037 384.577 438.708 385.651 439.785 385.9L455.374 389.499L451.775 405.089C451.527 406.165 452.198 407.239 453.274 407.487C454.35 407.736 455.424 407.065 455.673 405.989L459.722 388.45ZM374.028 442.688L458.833 389.696L456.713 386.304L371.908 439.296L374.028 442.688Z" fill="#888888"/>
<path d="M456.283 499.244C457.363 499.014 458.053 497.952 457.823 496.872L454.081 479.265C453.851 478.185 452.789 477.495 451.709 477.725C450.628 477.954 449.939 479.016 450.168 480.097L453.495 495.747L437.845 499.074C436.764 499.303 436.074 500.365 436.304 501.446C436.534 502.526 437.596 503.216 438.676 502.986L456.283 499.244ZM370.911 444.501L454.778 498.965L456.956 495.61L373.089 441.146L370.911 444.501Z" fill="#888888"/>
<path d="M801.502 274.826C801.406 273.725 800.436 272.911 799.336 273.008L781.404 274.576C780.304 274.673 779.49 275.643 779.586 276.743C779.682 277.843 780.652 278.657 781.753 278.561L797.692 277.167L799.086 293.106C799.183 294.206 800.153 295.02 801.253 294.924C802.354 294.828 803.167 293.858 803.071 292.757L801.502 274.826ZM736.763 352.89L801.042 276.286L797.978 273.714L733.699 350.319L736.763 352.89Z" fill="#888888"/>
<path d="M836.414 352.22C837.195 351.439 837.195 350.173 836.414 349.392L823.686 336.664C822.905 335.883 821.639 335.883 820.858 336.664C820.077 337.445 820.077 338.711 820.858 339.493L832.172 350.806L820.858 362.12C820.077 362.901 820.077 364.167 820.858 364.948C821.639 365.729 822.905 365.729 823.686 364.948L836.414 352.22ZM735 352.806H835V348.806H735V352.806Z" fill="#888888"/>
<path d="M799.104 428.403C800.205 428.499 801.175 427.685 801.271 426.585L802.84 408.653C802.936 407.553 802.122 406.583 801.022 406.487C799.922 406.39 798.951 407.204 798.855 408.305L797.461 424.244L781.522 422.849C780.421 422.753 779.451 423.567 779.355 424.668C779.259 425.768 780.073 426.738 781.173 426.834L799.104 428.403ZM733.468 351.092L797.747 427.696L800.811 425.125L736.532 348.521L733.468 351.092Z" fill="#888888"/>
<line x1="2.25773" y1="447.024" x2="16.2577" y2="463.024" stroke="#3CBB00" stroke-width="6"/>
<line x1="11.8787" y1="463.879" x2="58.8787" y2="416.879" stroke="#3CBB00" stroke-width="6"/>
<line x1="1103" y1="193" x2="1219" y2="193" stroke="#888888" stroke-width="4"/>
<line x1="1217" y1="721" x2="1217" y2="195" stroke="#888888" stroke-width="4"/>
<line x1="1103" y1="349" x2="1219" y2="349" stroke="#888888" stroke-width="4"/>
<line x1="1103" y1="513" x2="1219" y2="513" stroke="#888888" stroke-width="4"/>
</svg>
